<svg width="64" height="65" viewBox="0 0 64 65" fill="none" xmlns="http://www.w3.org/2000/svg">
<path d="M10 20.4763H54C54.5304 20.4763 55.0391 20.2656 55.4142 19.8905C55.7893 19.5155 56 19.0068 56 18.4763C56 17.9459 55.7893 17.4372 55.4142 17.0621C55.0391 16.687 54.5304 16.4763 54 16.4763H10C9.46957 16.4763 8.96086 16.687 8.58579 17.0621C8.21071 17.4372 8 17.9459 8 18.4763C8 19.0068 8.21071 19.5155 8.58579 19.8905C8.96086 20.2656 9.46957 20.4763 10 20.4763ZM14 14.4763H50C50.5304 14.4763 51.0391 14.2656 51.4142 13.8905C51.7893 13.5155 52 13.0068 52 12.4763C52 11.9459 51.7893 11.4372 51.4142 11.0621C51.0391 10.687 50.5304 10.4763 50 10.4763H14C13.4696 10.4763 12.9609 10.687 12.5858 11.0621C12.2107 11.4372 12 11.9459 12 12.4763C12 13.0068 12.2107 13.5155 12.5858 13.8905C12.9609 14.2656 13.4696 14.4763 14 14.4763ZM56 22.4763H8C7.46957 22.4763 6.96086 22.687 6.58579 23.0621C6.21071 23.4372 6 23.9459 6 24.4763V52.4763C6 53.0068 6.21071 53.5155 6.58579 53.8905C6.96086 54.2656 7.46957 54.4763 8 54.4763H56C56.5304 54.4763 57.0391 54.2656 57.4142 53.8905C57.7893 53.5155 58 53.0068 58 52.4763V24.4763C58 23.9459 57.7893 23.4372 57.4142 23.0621C57.0391 22.687 56.5304 22.4763 56 22.4763ZM15.42 31.8963C15.0367 32.2618 14.5295 32.469 14 32.4763C13.7386 32.4732 13.4804 32.4188 13.24 32.3163C12.9976 32.215 12.7744 32.073 12.58 31.8963C12.2145 31.5131 12.0074 31.0059 12 30.4763C12.0032 30.215 12.0575 29.9568 12.16 29.7163C12.2552 29.4708 12.3979 29.2465 12.58 29.0563C12.7744 28.8797 12.9976 28.7376 13.24 28.6363C13.7282 28.4373 14.2753 28.4391 14.7622 28.6413C15.2491 28.8436 15.6365 29.2299 15.84 29.7163C15.9425 29.9568 15.9968 30.215 16 30.4763C15.9926 31.0059 15.7855 31.5131 15.42 31.8963ZM32 46.4763C30.4177 46.4763 28.871 46.0071 27.5554 45.1281C26.2398 44.249 25.2145 42.9996 24.609 41.5378C24.0035 40.076 23.845 38.4674 24.1537 36.9156C24.4624 35.3637 25.2243 33.9383 26.3431 32.8195C27.462 31.7006 28.8874 30.9387 30.4393 30.63C31.9911 30.3214 33.5997 30.4798 35.0615 31.0853C36.5233 31.6908 37.7727 32.7162 38.6518 34.0318C39.5308 35.3474 40 36.8941 40 38.4763C40 40.5981 39.1571 42.6329 37.6569 44.1332C36.1566 45.6335 34.1217 46.4763 32 46.4763ZM51.42 47.8963C51.0943 48.2247 50.6647 48.4301 50.2046 48.4774C49.7445 48.5247 49.2822 48.4111 48.8964 48.1558C48.5106 47.9006 48.2253 47.5195 48.0889 47.0775C47.9526 46.6355 47.9736 46.1599 48.1485 45.7316C48.3234 45.3034 48.6414 44.9491 49.0482 44.7289C49.455 44.5088 49.9256 44.4364 50.3797 44.5243C50.8339 44.6121 51.2435 44.8546 51.539 45.2105C51.8344 45.5664 51.9973 46.0138 52 46.4763C51.9926 47.0059 51.7855 47.5131 51.42 47.8963Z" fill="white"/>
</svg>
