<svg width="20" height="20" viewBox="0 0 20 20" fill="none" xmlns="http://www.w3.org/2000/svg">
<path opacity="0.4" d="M20 10C20 15.524 15.523 20 10 20C4.477 20 0 15.524 0 10C0 4.478 4.477 0 10 0C15.523 0 20 4.478 20 10Z" fill="#EF8E2E"/>
<path d="M9.99512 12.9287C10.4881 12.9287 10.8801 13.3217 10.8801 13.8037C10.8801 14.2857 10.4881 14.6787 10.0051 14.6787C9.52012 14.6787 9.12512 14.2857 9.12512 13.8037C9.12512 13.3217 9.51612 12.9287 9.99512 12.9287ZM9.99512 5.33594C10.4771 5.33594 10.8701 5.72894 10.8701 6.21094V10.6309C10.8701 11.1129 10.4771 11.5059 9.99512 11.5059C9.51312 11.5059 9.12012 11.1129 9.12012 10.6309V6.21094C9.12012 5.72894 9.51312 5.33594 9.99512 5.33594Z" fill="#EF8E2E"/>
</svg>
