<svg width="14" height="14" viewBox="0 0 14 14" fill="none" xmlns="http://www.w3.org/2000/svg">
<path d="M7.0135 0.333984C10.8002 0.333984 13.6668 3.43864 13.6668 6.99064C13.6668 11.1101 10.3068 13.6673 7.00016 13.6673C5.90683 13.6673 4.6935 13.3735 3.72016 12.7993C3.38016 12.5924 3.0935 12.4388 2.72683 12.559L1.38016 12.9596C1.04016 13.0664 0.733496 12.7993 0.833496 12.4388L1.28016 10.9432C1.3535 10.7363 1.34016 10.5159 1.2335 10.3423C0.660163 9.28741 0.333496 8.13235 0.333496 7.01067C0.333496 3.49873 3.14016 0.333984 7.0135 0.333984ZM10.0602 6.16273C9.58683 6.16273 9.20683 6.5433 9.20683 7.01734C9.20683 7.48471 9.58683 7.87196 10.0602 7.87196C10.5335 7.87196 10.9135 7.48471 10.9135 7.01734C10.9135 6.5433 10.5335 6.16273 10.0602 6.16273ZM6.98683 6.16273C6.52016 6.15605 6.1335 6.5433 6.1335 7.01067C6.1335 7.48471 6.5135 7.86528 6.98683 7.87196C7.46016 7.87196 7.84016 7.48471 7.84016 7.01734C7.84016 6.5433 7.46016 6.16273 6.98683 6.16273ZM3.9135 6.16273C3.44016 6.16273 3.06016 6.5433 3.06016 7.01734C3.06016 7.48471 3.44683 7.87196 3.9135 7.87196C4.38683 7.86528 4.76683 7.48471 4.76683 7.01734C4.76683 6.5433 4.38683 6.16273 3.9135 6.16273Z" fill="#444A47"/>
</svg>
