<svg width="14" height="14" viewBox="0 0 14 14" fill="none" xmlns="http://www.w3.org/2000/svg">
<path fill-rule="evenodd" clip-rule="evenodd" d="M6.99992 0.333984C10.6759 0.333984 13.6666 3.32465 13.6666 7.00065C13.6666 10.6767 10.6759 13.6673 6.99992 13.6673C3.32392 13.6673 0.333252 10.6767 0.333252 7.00065C0.333252 3.32465 3.32392 0.333984 6.99992 0.333984ZM6.99992 1.33398C3.87525 1.33398 1.33325 3.87598 1.33325 7.00065C1.33325 10.1253 3.87525 12.6673 6.99992 12.6673C10.1246 12.6673 12.6666 10.1253 12.6666 7.00065C12.6666 3.87598 10.1246 1.33398 6.99992 1.33398ZM6.77405 3.73092C7.05072 3.73092 7.27405 3.95492 7.27405 4.23092V7.17892L9.54405 8.53225C9.78072 8.67425 9.85872 8.98092 9.71738 9.21825C9.62338 9.37492 9.45739 9.46225 9.28738 9.46225C9.20005 9.46225 9.11205 9.43958 9.03138 9.39225L6.51805 7.89292C6.36738 7.80225 6.27405 7.63892 6.27405 7.46292V4.23092C6.27405 3.95492 6.49805 3.73092 6.77405 3.73092Z" fill="#19201D"/>
</svg>
