<svg width="42" height="39" viewBox="0 0 42 39" fill="none" xmlns="http://www.w3.org/2000/svg">
<path d="M22.7353 21C25.6348 21 27.9853 23.3505 27.9853 26.25L27.9825 28.8693C28.3426 35.2972 23.3917 38.5028 14.2107 38.5028C5.05932 38.5028 0 35.3392 0 28.961V26.25C0 23.3505 2.35051 21 5.25 21H22.7353ZM36.7374 21C39.6369 21 41.9874 23.3505 41.9874 26.25L41.9847 28.093C42.3012 33.8591 37.9266 36.75 29.9306 36.75C28.8452 36.75 27.8247 36.6971 26.8718 36.5913C28.7503 34.8566 29.7551 32.5026 29.7517 29.528L29.7298 28.7714L29.7353 26.25C29.7353 24.1585 28.818 22.2812 27.3638 20.9986L36.7374 21ZM14 0C18.8333 0 22.7514 3.91814 22.7514 8.75142C22.7514 13.5847 18.8333 17.5028 14 17.5028C9.16673 17.5028 5.24858 13.5847 5.24858 8.75142C5.24858 3.91814 9.16673 0 14 0ZM31.5 3.5C35.366 3.5 38.5 6.63401 38.5 10.5C38.5 14.366 35.366 17.5 31.5 17.5C27.634 17.5 24.5 14.366 24.5 10.5C24.5 6.63401 27.634 3.5 31.5 3.5Z" fill="#40916C"/>
</svg>
