<svg width="14" height="14" viewBox="0 0 14 14" fill="none" xmlns="http://www.w3.org/2000/svg">
<path fill-rule="evenodd" clip-rule="evenodd" d="M3.16665 7.66671C5.87931 7.66671 5.99998 8.58671 5.99998 10.5C5.99998 11.4587 5.99998 12.1407 5.59731 12.64C5.13398 13.2154 4.29065 13.3334 3.16665 13.3334C2.04265 13.3334 1.19931 13.2154 0.73598 12.64C0.333313 12.1407 0.333313 11.4594 0.333313 10.5167L0.833313 10.5H0.333313C0.333313 8.58671 0.45398 7.66671 3.16665 7.66671ZM10.5 7.66671C13.2126 7.66671 13.3333 8.58671 13.3333 10.5C13.3333 11.4587 13.3333 12.1407 12.9306 12.64C12.4673 13.2154 11.624 13.3334 10.5 13.3334C9.37598 13.3334 8.53265 13.2154 8.06931 12.64C7.66665 12.1407 7.66665 11.4594 7.66665 10.5167L8.16665 10.5H7.66665C7.66665 8.58671 7.78731 7.66671 10.5 7.66671ZM3.30409 8.66701L3.16665 8.66671C1.42733 8.66671 1.33813 8.79152 1.33356 10.2514L1.33384 10.8202C1.337 11.4008 1.35912 11.8202 1.51398 12.0134C1.69065 12.232 2.21531 12.3334 3.16665 12.3334C4.11798 12.3334 4.64265 12.2314 4.81931 12.0127C4.99998 11.788 4.99998 11.2547 4.99998 10.516C4.99998 8.84924 4.99998 8.67485 3.30409 8.66701ZM10.6374 8.66701L10.5 8.66671C8.76066 8.66671 8.67147 8.79152 8.66689 10.2514L8.66717 10.8202C8.67033 11.4008 8.69246 11.8202 8.84731 12.0134C9.02398 12.232 9.54865 12.3334 10.5 12.3334C11.4513 12.3334 11.976 12.2314 12.1526 12.0127C12.3333 11.788 12.3333 11.2547 12.3333 10.516C12.3333 8.84924 12.3333 8.67485 10.6374 8.66701ZM3.16665 0.333374C5.87931 0.333374 5.99998 1.25337 5.99998 3.16671C5.99998 4.12537 5.99998 4.80737 5.59731 5.30671C5.13398 5.88204 4.29065 6.00004 3.16665 6.00004C2.04265 6.00004 1.19931 5.88204 0.73598 5.30671C0.333313 4.80737 0.333313 4.12604 0.333313 3.18337L0.833313 3.16671H0.333313C0.333313 1.25337 0.45398 0.333374 3.16665 0.333374ZM10.5 0.333374C13.2126 0.333374 13.3333 1.25337 13.3333 3.16671C13.3333 4.12537 13.3333 4.80737 12.9306 5.30671C12.4673 5.88204 11.624 6.00004 10.5 6.00004C9.37598 6.00004 8.53265 5.88204 8.06931 5.30671C7.66665 4.80737 7.66665 4.12604 7.66665 3.18337L8.16665 3.16671H7.66665C7.66665 1.25337 7.78731 0.333374 10.5 0.333374ZM3.30409 1.33367L3.16665 1.33337C1.42733 1.33337 1.33813 1.45818 1.33356 2.91807L1.33384 3.48683C1.337 4.06747 1.35912 4.4869 1.51398 4.68004C1.69065 4.89871 2.21531 5.00004 3.16665 5.00004C4.11798 5.00004 4.64265 4.89804 4.81931 4.67937C4.99998 4.45471 4.99998 3.92137 4.99998 3.18271C4.99998 1.5159 4.99998 1.34152 3.30409 1.33367ZM10.6374 1.33367L10.5 1.33337C8.76066 1.33337 8.67147 1.45818 8.66689 2.91807L8.66717 3.48683C8.67033 4.06747 8.69246 4.4869 8.84731 4.68004C9.02398 4.89871 9.54865 5.00004 10.5 5.00004C11.4513 5.00004 11.976 4.89804 12.1526 4.67937C12.3333 4.45471 12.3333 3.92137 12.3333 3.18271C12.3333 1.5159 12.3333 1.34152 10.6374 1.33367Z" fill="white"/>
</svg>
