<svg width="64" height="65" viewBox="0 0 64 65" fill="none" xmlns="http://www.w3.org/2000/svg">
<path d="M1.68433 51.0027C1.68433 52.7894 2.3941 54.5029 3.6575 55.7663C4.9209 57.0297 6.63445 57.7395 8.42117 57.7395H48.8422C50.6289 57.7395 52.3425 57.0297 53.6059 55.7663C54.8693 54.5029 55.5791 52.7894 55.5791 51.0027V22.3711C55.5791 20.5844 54.8693 18.8708 53.6059 17.6074C52.3425 16.344 50.6289 15.6342 48.8422 15.6342H33.6843C27.6852 15.6342 28.6317 7.21318 19.4746 7.21318H8.42117C6.63445 7.21318 4.9209 7.92296 3.6575 9.18636C2.3941 10.4498 1.68433 12.1633 1.68433 13.95V51.0027Z" fill="#B4B4B4"/>
<path d="M52.2106 19.0027H41.1589C32.0001 19.0027 32.9466 27.4237 26.9475 27.4237H11.7896C10.0029 27.4237 8.28933 28.1335 7.02592 29.3969C5.76252 30.6603 5.05275 32.3738 5.05275 34.1606V51.0027C5.05275 51.4493 4.87531 51.8777 4.55945 52.1936C4.2436 52.5094 3.81522 52.6869 3.36854 52.6869C2.92186 52.6869 2.49347 52.5094 2.17762 52.1936C1.86177 51.8777 1.68433 51.4493 1.68433 51.0027C1.68433 52.7894 2.3941 54.5029 3.6575 55.7663C4.92091 57.0297 6.63445 57.7395 8.42117 57.7395H52.2106C53.9974 57.7395 55.7109 57.0297 56.9743 55.7663C58.2377 54.5029 58.9475 52.7894 58.9475 51.0027V25.7395C58.9475 23.9528 58.2377 22.2392 56.9743 20.9758C55.7109 19.7124 53.9974 19.0027 52.2106 19.0027Z" fill="white"/>
</svg>
