<svg width="16" height="17" viewBox="0 0 16 17" fill="none" xmlns="http://www.w3.org/2000/svg">
<path fill-rule="evenodd" clip-rule="evenodd" d="M12.9231 5.85044C13.1984 5.87311 13.4037 6.11378 13.3817 6.38911C13.3777 6.43444 13.0164 10.9084 12.8084 12.7851C12.6791 13.9498 11.9097 14.6584 10.7484 14.6798C9.85973 14.6951 9.0024 14.7038 8.1644 14.7038C7.26107 14.7038 6.3804 14.6938 5.50907 14.6758C4.3944 14.6538 3.62307 13.9311 3.49707 12.7898C3.28707 10.8964 2.92773 6.43378 2.9244 6.38911C2.90173 6.11378 3.10707 5.87244 3.3824 5.85044C3.65373 5.84311 3.89907 6.03378 3.92107 6.30844C3.92319 6.33738 4.07009 8.1598 4.23017 9.96292L4.26233 10.3227C4.34295 11.219 4.42468 12.0802 4.49107 12.6798C4.5624 13.3284 4.9124 13.6631 5.52973 13.6758C7.1964 13.7111 8.89707 13.7131 10.7304 13.6798C11.3864 13.6671 11.7411 13.3391 11.8144 12.6751C12.0211 10.8124 12.3811 6.35378 12.3851 6.30844C12.4071 6.03378 12.6504 5.84178 12.9231 5.85044ZM9.5636 1.37064C10.1756 1.37064 10.7136 1.78331 10.8716 2.37464L11.0409 3.21531C11.0957 3.49089 11.3375 3.69215 11.6175 3.69657L13.8053 3.69664C14.0813 3.69664 14.3053 3.92064 14.3053 4.19664C14.3053 4.47264 14.0813 4.69664 13.8053 4.69664L11.6371 4.69654C11.6337 4.69661 11.6303 4.69664 11.6269 4.69664L11.6107 4.69598L4.69441 4.69656C4.68904 4.69662 4.68365 4.69664 4.67827 4.69664L4.668 4.69598L2.5 4.69664C2.224 4.69664 2 4.47264 2 4.19664C2 3.92064 2.224 3.69664 2.5 3.69664L4.68733 3.69598L4.75468 3.69171C5.00554 3.65917 5.21402 3.46864 5.26493 3.21531L5.42693 2.40464C5.5916 1.78331 6.1296 1.37064 6.7416 1.37064H9.5636ZM9.5636 2.37064H6.7416C6.5816 2.37064 6.44093 2.47798 6.40027 2.63198L6.24493 3.41198C6.22519 3.51077 6.19644 3.60599 6.15966 3.69682H10.1457C10.1089 3.60599 10.0801 3.51077 10.0603 3.41198L9.89827 2.60131C9.86427 2.47798 9.7236 2.37064 9.5636 2.37064Z" fill="#914040"/>
</svg>
