<svg width="13" height="13" viewBox="0 0 13 13" fill="none" xmlns="http://www.w3.org/2000/svg">
<path fill-rule="evenodd" clip-rule="evenodd" d="M5.70375 0.51928C5.94525 0.51928 6.14125 0.71528 6.14125 0.95678C6.14125 1.19828 5.94525 1.39428 5.70375 1.39428H3.52266C2.01533 1.39428 1.04175 2.42678 1.04175 4.02453V8.87436C1.04175 10.4721 2.01533 11.5046 3.52266 11.5046H8.67C10.1773 11.5046 11.1515 10.4721 11.1515 8.87436V6.5247C11.1515 6.2832 11.3475 6.0872 11.589 6.0872C11.8305 6.0872 12.0265 6.2832 12.0265 6.5247V8.87436C12.0265 10.9709 10.6772 12.3796 8.67 12.3796H3.52266C1.51541 12.3796 0.166748 10.9709 0.166748 8.87436V4.02453C0.166748 1.92803 1.51541 0.51928 3.52266 0.51928H5.70375ZM10.7843 1.0318L11.4943 1.74171C11.8402 2.08705 12.0303 2.54613 12.0298 3.03496C12.0298 3.5238 11.8396 3.9823 11.4943 4.32705L7.11402 8.7073C6.7926 9.02871 6.36443 9.20605 5.90943 9.20605H3.72426C3.60643 9.20605 3.49326 9.15821 3.41101 9.07363C3.32876 8.98963 3.28385 8.87588 3.28676 8.75746L3.3416 6.55305C3.35268 6.11438 3.52943 5.70196 3.83976 5.39105H3.84035L8.1996 1.0318C8.91243 0.32013 10.0715 0.32013 10.7843 1.0318ZM7.8405 2.6278L4.45868 6.00996C4.3076 6.16105 4.22185 6.36171 4.2166 6.57463L4.17285 8.33105H5.90943C6.1311 8.33105 6.33877 8.2453 6.49568 8.08838L9.89792 4.68521L7.8405 2.6278ZM8.81793 1.65071L8.45883 2.00888L10.5162 4.06688L10.8759 3.70813C11.0556 3.52846 11.1548 3.2893 11.1548 3.03496C11.1548 2.78005 11.0556 2.5403 10.8759 2.36063L10.166 1.65071C9.79443 1.2803 9.1901 1.2803 8.81793 1.65071Z" fill="#444A47"/>
</svg>
