<svg width="14" height="12" viewBox="0 0 14 12" fill="none" xmlns="http://www.w3.org/2000/svg">
<path d="M10.2977 0C11.1917 0 12.0517 0.353333 12.6844 0.987333C13.3177 1.62 13.6717 2.47333 13.6717 3.36667V8.63333C13.6717 10.4933 12.1584 12 10.2977 12H3.71171C1.85105 12 0.338379 10.4933 0.338379 8.63333V3.36667C0.338379 1.50667 1.84438 0 3.71171 0H10.2977ZM11.0517 3.46667C10.9117 3.45933 10.7784 3.50667 10.6777 3.6L7.67171 6C7.28505 6.32067 6.73105 6.32067 6.33838 6L3.33838 3.6C3.13105 3.44667 2.84438 3.46667 2.67171 3.64667C2.49171 3.82667 2.47171 4.11333 2.62438 4.31333L2.71171 4.4L5.74505 6.76667C6.11838 7.06 6.57105 7.22 7.04505 7.22C7.51771 7.22 7.97838 7.06 8.35104 6.76667L11.3584 4.36L11.4117 4.30667C11.571 4.11333 11.571 3.83333 11.4044 3.64C11.3117 3.54067 11.1844 3.48 11.0517 3.46667Z" fill="#19201D"/>
</svg>
