<svg width="14" height="12" viewBox="0 0 14 12" fill="none" xmlns="http://www.w3.org/2000/svg">
<path fill-rule="evenodd" clip-rule="evenodd" d="M12.6118 0.1465C12.8071 0.341833 12.8071 0.6585 12.6118 0.853833L2.09576 11.3692C1.99843 11.4672 1.87043 11.5158 1.74243 11.5158C1.61443 11.5158 1.48643 11.4672 1.3891 11.3692C1.19376 11.1738 1.19376 10.8578 1.3891 10.6625L2.70373 9.34867C1.76118 8.48656 0.96164 7.32442 0.374496 5.95597C0.319829 5.8293 0.319829 5.68663 0.374496 5.56063C1.05516 3.98463 2.01383 2.67997 3.14716 1.78863C5.34238 0.0513326 8.22837 -0.0408837 10.5126 1.53885L11.9051 0.1465C12.1004 -0.0488333 12.4164 -0.0488333 12.6118 0.1465ZM12.365 3.3605C12.8476 4.00117 13.2716 4.74183 13.6256 5.55917C13.681 5.68583 13.681 5.82983 13.6256 5.95583C12.2283 9.19383 9.75163 11.1265 7.0003 11.1265C6.37563 11.1265 5.7543 11.0252 5.1543 10.8258C4.8923 10.7385 4.7503 10.4552 4.83763 10.1932C4.92496 9.9305 5.20696 9.79117 5.4703 9.8765C5.9683 10.0425 6.48296 10.1265 7.0003 10.1265C9.28563 10.1265 11.3743 8.4985 12.6203 5.75783C12.3163 5.09183 11.9623 4.4885 11.5663 3.96183C11.4003 3.74117 11.4443 3.42717 11.665 3.26117C11.885 3.09517 12.199 3.1405 12.365 3.3605ZM3.7665 2.57397C2.80916 3.3273 1.98716 4.42463 1.3805 5.7593C1.90946 6.9276 2.60438 7.91288 3.41153 8.64047L4.83673 7.21541C4.54678 6.78879 4.39076 6.2858 4.39076 5.75903C4.39076 4.31903 5.56143 3.1477 7.00009 3.1477C7.52208 3.1477 8.03269 3.30664 8.45781 3.5939L9.79216 2.25963C7.89027 1.03015 5.57549 1.14231 3.7665 2.57397ZM9.15849 5.64103C9.4305 5.6897 9.61116 5.9497 9.5625 6.2217C9.37116 7.2837 8.52983 8.12637 7.4685 8.3197C7.4385 8.32503 7.40783 8.3277 7.3785 8.3277C7.14183 8.3277 6.93116 8.15837 6.88716 7.91703C6.83783 7.6457 7.01783 7.38503 7.28983 7.3357C7.94316 7.21703 8.46049 6.69837 8.57783 6.04437C8.62716 5.77303 8.88716 5.59437 9.15849 5.64103ZM7.00009 4.1477C6.11276 4.1477 5.39076 4.87037 5.39076 5.75903C5.39076 6.01595 5.45125 6.26396 5.56526 6.48668L7.72902 4.32266C7.50626 4.20914 7.25569 4.1477 7.00009 4.1477Z" fill="#444A47"/>
</svg>
