<svg width="11" height="10" viewBox="0 0 11 10" fill="none" xmlns="http://www.w3.org/2000/svg">
<path fill-rule="evenodd" clip-rule="evenodd" d="M9.14294 5.9965C10.1439 5.9965 10.9583 6.80675 10.9583 7.8025C10.9583 8.79824 10.1439 9.60849 9.14294 9.60849C8.14136 9.60849 7.32644 8.79824 7.32644 7.8025C7.32644 6.80675 8.14136 5.9965 9.14294 5.9965ZM9.14294 6.8715C8.62378 6.8715 8.20144 7.28916 8.20144 7.8025C8.20144 8.31641 8.62378 8.73349 9.14294 8.73349C9.66153 8.73349 10.0833 8.31641 10.0833 7.8025C10.0833 7.28916 9.66153 6.8715 9.14294 6.8715ZM4.88018 7.38763C5.12168 7.38763 5.31768 7.58363 5.31768 7.82513C5.31768 8.06663 5.12168 8.26263 4.88018 8.26263H1.20459C0.963092 8.26263 0.767092 8.06663 0.767092 7.82513C0.767092 7.58363 0.963092 7.38763 1.20459 7.38763H4.88018ZM2.56592 0.333496C3.5675 0.333496 4.38183 1.14433 4.38183 2.14008C4.38183 3.13583 3.5675 3.9455 2.56592 3.9455C1.56492 3.9455 0.75 3.13583 0.75 2.14008C0.75 1.14433 1.56492 0.333496 2.56592 0.333496ZM2.56592 1.2085C2.04733 1.2085 1.625 1.62616 1.625 2.14008C1.625 2.65341 2.04733 3.0705 2.56592 3.0705C3.08508 3.0705 3.50683 2.65341 3.50683 2.14008C3.50683 1.62616 3.08508 1.2085 2.56592 1.2085ZM10.1948 1.73373C10.4363 1.73373 10.6323 1.92973 10.6323 2.17123C10.6323 2.41273 10.4363 2.60873 10.1948 2.60873H6.51981C6.27831 2.60873 6.08231 2.41273 6.08231 2.17123C6.08231 1.92973 6.27831 1.73373 6.51981 1.73373H10.1948Z" fill="#444A47"/>
</svg>
