<svg width="133" height="40" viewBox="0 0 133 40" fill="none" xmlns="http://www.w3.org/2000/svg">
<path d="M70.28 28H68.34L68.16 26.2C67.8133 26.7867 67.2667 27.2867 66.52 27.7C65.7733 28.1 64.8733 28.3 63.82 28.3C61.8867 28.3 60.24 27.6333 58.88 26.3C57.52 24.9533 56.84 23.1533 56.84 20.9C56.84 19.4067 57.18 18.0867 57.86 16.94C58.5533 15.7933 59.4333 14.94 60.5 14.38C61.5667 13.8067 62.7267 13.52 63.98 13.52C65.62 13.52 66.9933 13.9267 68.1 14.74C69.22 15.5533 69.98 16.5867 70.38 17.84L68.12 18.7C67.8667 17.8467 67.38 17.14 66.66 16.58C65.94 16.02 65.0467 15.74 63.98 15.74C62.7133 15.74 61.6133 16.1867 60.68 17.08C59.7467 17.9733 59.28 19.2467 59.28 20.9C59.28 22.54 59.7333 23.82 60.64 24.74C61.5467 25.6467 62.6533 26.1 63.96 26.1C65.24 26.1 66.2133 25.7667 66.88 25.1C67.56 24.42 67.94 23.6933 68.02 22.92H63.34V20.82H70.28V28ZM75.3283 25.4C75.8616 25.9467 76.5083 26.22 77.2683 26.22C78.0283 26.22 78.6683 25.9467 79.1883 25.4C79.7216 24.8533 79.9883 24.0933 79.9883 23.12C79.9883 22.16 79.7216 21.4133 79.1883 20.88C78.6683 20.3333 78.0283 20.06 77.2683 20.06C76.5083 20.06 75.8616 20.3333 75.3283 20.88C74.8083 21.4133 74.5483 22.16 74.5483 23.12C74.5483 24.08 74.8083 24.84 75.3283 25.4ZM77.2683 17.96C78.7349 17.96 79.9416 18.4467 80.8883 19.42C81.8483 20.3933 82.3283 21.6267 82.3283 23.12C82.3283 24.6133 81.8483 25.8533 80.8883 26.84C79.9416 27.8133 78.7349 28.3 77.2683 28.3C75.8149 28.3 74.6083 27.8133 73.6483 26.84C72.7016 25.8533 72.2283 24.6133 72.2283 23.12C72.2283 21.6267 72.7016 20.3933 73.6483 19.42C74.6083 18.4467 75.8149 17.96 77.2683 17.96ZM91.7913 28H89.5313V13.52H91.8113V19.46C92.0513 19.0467 92.4446 18.7 92.9913 18.42C93.5379 18.14 94.1646 18 94.8713 18C96.2846 18 97.3846 18.48 98.1713 19.44C98.9713 20.3867 99.3713 21.6 99.3713 23.08C99.3713 24.5867 98.9513 25.8267 98.1113 26.8C97.2846 27.76 96.1779 28.24 94.7913 28.24C93.4046 28.24 92.4046 27.7267 91.7913 26.7V28ZM96.2913 25.36C96.7846 24.8 97.0313 24.0467 97.0313 23.1C97.0313 22.1533 96.7913 21.4133 96.3113 20.88C95.8313 20.3333 95.1979 20.06 94.4113 20.06C93.6513 20.06 93.0246 20.3333 92.5313 20.88C92.0379 21.4133 91.7913 22.1533 91.7913 23.1C91.7913 24.0333 92.0379 24.78 92.5313 25.34C93.0246 25.9 93.6513 26.18 94.4113 26.18C95.1846 26.18 95.8113 25.9067 96.2913 25.36ZM101.002 25.36C101.002 24.5333 101.268 23.8733 101.802 23.38C102.348 22.8733 103.062 22.5533 103.942 22.42L106.442 22.04C106.922 21.9733 107.162 21.74 107.162 21.34C107.162 20.9 107.008 20.5467 106.702 20.28C106.395 20 105.935 19.86 105.322 19.86C104.735 19.86 104.268 20.0267 103.922 20.36C103.575 20.68 103.375 21.1 103.322 21.62L101.202 21.14C101.295 20.26 101.715 19.5133 102.462 18.9C103.208 18.2733 104.155 17.96 105.302 17.96C106.715 17.96 107.755 18.3 108.422 18.98C109.102 19.66 109.442 20.5333 109.442 21.6V26.44C109.442 27.08 109.482 27.6 109.562 28H107.402C107.335 27.8 107.302 27.3867 107.302 26.76C106.662 27.7867 105.662 28.3 104.302 28.3C103.315 28.3 102.515 28.0133 101.902 27.44C101.302 26.8533 101.002 26.16 101.002 25.36ZM104.742 26.48C105.462 26.48 106.042 26.2867 106.482 25.9C106.935 25.5 107.162 24.8533 107.162 23.96V23.52L104.622 23.9C103.755 24.0467 103.322 24.4867 103.322 25.22C103.322 25.5667 103.448 25.8667 103.702 26.12C103.955 26.36 104.302 26.48 104.742 26.48ZM116.467 20.1C115.72 20.1 115.087 20.3733 114.567 20.92C114.047 21.4533 113.787 22.1867 113.787 23.12C113.787 24.0667 114.047 24.8133 114.567 25.36C115.1 25.9067 115.747 26.18 116.507 26.18C117.187 26.18 117.727 26 118.127 25.64C118.54 25.2667 118.813 24.8467 118.947 24.38L120.987 25.12C120.72 25.9867 120.2 26.7333 119.427 27.36C118.667 27.9867 117.693 28.3 116.507 28.3C115.08 28.3 113.88 27.8067 112.907 26.82C111.947 25.8333 111.467 24.6 111.467 23.12C111.467 21.6267 111.94 20.3933 112.887 19.42C113.847 18.4467 115.033 17.96 116.447 17.96C117.66 17.96 118.647 18.2733 119.407 18.9C120.18 19.5267 120.68 20.28 120.907 21.16L118.827 21.92C118.693 21.4133 118.433 20.9867 118.047 20.64C117.673 20.28 117.147 20.1 116.467 20.1ZM132.167 18.26L128.167 22.38L132.247 28H129.407L126.547 24.02L125.347 25.28V28H123.047V13.52H125.347V22.2L129.087 18.26H132.167Z" fill="#19201D"/>
<circle cx="20" cy="20" r="19.5" fill="#EDFFF7" stroke="#19201D"/>
<path d="M14.75 20L18.25 23.5M14.75 20H25.25H14.75ZM14.75 20L18.25 16.5L14.75 20Z" stroke="#19201D" stroke-width="1.5" stroke-linecap="round" stroke-linejoin="round"/>
</svg>
