<svg xmlns="http://www.w3.org/2000/svg" xmlns:xlink="http://www.w3.org/1999/xlink" viewBox="0 0 452.73 452.72"><defs><style>.cls-1{fill:none;}.cls-2{isolation:isolate;}.cls-3{fill:url(#linear-gradient);}.cls-4{mix-blend-mode:multiply;}.cls-5{clip-path:url(#clip-path);}.cls-6{opacity:0.46;fill:url(#White_Black);}</style><linearGradient id="linear-gradient" x1="113.16" y1="422.42" x2="339.56" y2="30.29" gradientUnits="userSpaceOnUse"><stop offset="0" stop-color="#40916c"/><stop offset="1" stop-color="#52b788"/></linearGradient><clipPath id="clip-path"><path class="cls-1" d="M452.73,226.36A226.37,226.37,0,1,1,226.36,0q4.8,0,9.55.2A225.53,225.53,0,0,1,385.26,65.14,85.65,85.65,0,0,1,291,88.71c-2.61-1.23-5.27-2.39-8-3.46A151.17,151.17,0,0,0,237.6,74.73q-5.57-.41-11.24-.41a151.87,151.87,0,0,0-152,152q0,5.67.41,11.24.24,3.22.6,6.42h0A152.06,152.06,0,0,0,182.08,371.84h0A152,152,0,0,0,378.4,226.36c0-2.11.3-8.83.3-10.15a17.3,17.3,0,0,0-1.19-6.34h0a17.52,17.52,0,0,0-16.33-11.16,17.32,17.32,0,0,0-7.77,1.82h0c-3.42,1.69-57.31,57.3-57.31,57.3l-.35.36-21.07,21.07-51,50.95-1.07-1.06-49.89-49.89L103,209.54a85.56,85.56,0,0,1,104.08,2.16l13.39,13.39c1,1.19,1.88,2.4,2.77,3.65l86.35-86.35A86.41,86.41,0,0,1,450,191.05q.84,5.35,1.43,10.81A227.91,227.91,0,0,1,452.73,226.36Z"/></clipPath><linearGradient id="White_Black" x1="343.42" y1="339.18" x2="423.25" y2="186.7" gradientUnits="userSpaceOnUse"><stop offset="0" stop-color="#fff"/><stop offset="1"/></linearGradient></defs><g class="cls-2"><g id="Layer_2" data-name="Layer 2"><g id="Layer_1-2" data-name="Layer 1"><path class="cls-3" d="M452.73,226.36A226.37,226.37,0,1,1,226.36,0q4.8,0,9.55.2A225.53,225.53,0,0,1,385.26,65.14,85.65,85.65,0,0,1,291,88.71c-2.61-1.23-5.27-2.39-8-3.46A151.17,151.17,0,0,0,237.6,74.73q-5.57-.41-11.24-.41a151.87,151.87,0,0,0-152,152q0,5.67.41,11.24.24,3.22.6,6.42h0A152.06,152.06,0,0,0,182.08,371.84h0A152,152,0,0,0,378.4,226.36c0-2.11.3-8.83.3-10.15a17.3,17.3,0,0,0-1.19-6.34h0a17.52,17.52,0,0,0-16.33-11.16,17.32,17.32,0,0,0-7.77,1.82h0c-3.42,1.69-57.31,57.3-57.31,57.3l-.35.36-21.07,21.07-51,50.95-1.07-1.06-49.89-49.89L103,209.54a85.56,85.56,0,0,1,104.08,2.16l13.39,13.39c1,1.19,1.88,2.4,2.77,3.65l86.35-86.35A86.41,86.41,0,0,1,450,191.05q.84,5.35,1.43,10.81A227.91,227.91,0,0,1,452.73,226.36Z"/><g class="cls-4"><g class="cls-5"><path class="cls-6" d="M361.82,198.65c-1.17,0-2.33,0-3.5.08a18.44,18.44,0,0,1-3.22,12.32c-4.91,6.7-8.63,14-12.94,21.11-4.77,7.85-10.52,15.15-16.24,22.32-4.87,6.12-10,12-14.94,18.08-1.28,1.57-2.57,3.15-3.83,4.74l-.54.68-.69.91c-2.41,3.32-4.77,6.66-7,10.12a23.29,23.29,0,0,1-21.67,11,85.94,85.94,0,0,0,84.56,69.75c47.53,0,86.06-38.31,86.06-85.57S409.35,198.65,361.82,198.65Z"/></g></g></g></g></g></svg>