<svg width="38" height="42" viewBox="0 0 38 42" fill="none" xmlns="http://www.w3.org/2000/svg">
<path d="M20.0993 25.6201L31.5513 37.1047C32.4613 38.0171 33.8613 37.9447 34.552 36.8574C36.6787 33.4963 37.8059 29.5998 37.8023 25.6224C37.8062 20.8471 36.1833 16.2129 33.201 12.4834L20.0993 25.6201ZM14 26.5907V9.42906C10.11 9.99446 6.55387 11.9422 3.98281 14.9157C1.41174 17.8891 -0.00216928 21.6892 2.49818e-06 25.6201C2.49818e-06 34.6641 7.31267 42.0001 16.3333 42.0001C19.8585 42.0001 23.2875 40.8508 26.1007 38.7264L14 26.5907ZM31.1057 7.49706C32.0157 6.58473 31.9573 5.16606 30.898 4.43339C27.9217 2.37179 24.5403 0.967857 20.979 0.315061C19.7097 0.081728 18.6667 1.04306 18.6667 2.33339V19.9734L31.1057 7.49706Z" fill="#40916C"/>
</svg>
