<svg width="42" height="40" viewBox="0 0 42 40" fill="none" xmlns="http://www.w3.org/2000/svg">
<path d="M39.6667 5.00001C39.6667 3.63034 39.067 2.27701 37.9167 1.35534C35.903 -0.254658 32.9677 0.0696745 31.3553 2.08334L24.8477 10.2173L19.1333 5.93334C17.1173 4.42134 14.2637 4.78301 12.6887 6.75234L3.35533 18.419C2.66933 19.2777 2.33333 20.3113 2.33333 21.3333V28.3333H39.6667V5.00001ZM39.6667 35.3333H2.33333C1.04533 35.3333 0 36.3763 0 37.6667C0 38.957 1.04533 40 2.33333 40H39.6667C40.9547 40 42 38.957 42 37.6667C42 36.3763 40.9547 35.3333 39.6667 35.3333Z" fill="#40916C"/>
</svg>
