<svg width="12" height="14" viewBox="0 0 12 14" fill="none" xmlns="http://www.w3.org/2000/svg">
<path fill-rule="evenodd" clip-rule="evenodd" d="M6.1665 0.333984C9.19917 0.333984 11.6665 2.81998 11.6665 5.87598C11.6665 9.63265 7.3625 13.334 6.1665 13.334C4.9705 13.334 0.666504 9.63265 0.666504 5.87598C0.666504 2.81998 3.13384 0.333984 6.1665 0.333984ZM6.1665 1.33398C3.68517 1.33398 1.6665 3.37198 1.6665 5.87598C1.6665 9.06198 5.41584 12.166 6.1665 12.3313C6.91717 12.1653 10.6665 9.06132 10.6665 5.87598C10.6665 3.37198 8.64784 1.33398 6.1665 1.33398ZM6.16717 3.66732C7.36184 3.66732 8.33384 4.63932 8.33384 5.83465C8.33384 7.02932 7.36184 8.00065 6.16717 8.00065C4.9725 8.00065 4.0005 7.02932 4.0005 5.83465C4.0005 4.63932 4.9725 3.66732 6.16717 3.66732ZM6.16717 4.66732C5.52384 4.66732 5.0005 5.19065 5.0005 5.83465C5.0005 6.47798 5.52384 7.00065 6.16717 7.00065C6.8105 7.00065 7.33384 6.47798 7.33384 5.83465C7.33384 5.19065 6.8105 4.66732 6.16717 4.66732Z" fill="#40916C"/>
</svg>
