<svg width="15" height="14" viewBox="0 0 15 14" fill="none" xmlns="http://www.w3.org/2000/svg">
<path fill-rule="evenodd" clip-rule="evenodd" d="M6.53889 0.333374C8.16956 0.333374 9.49622 1.66004 9.49622 3.29071V3.91204C9.49622 4.18804 9.27222 4.41204 8.99622 4.41204C8.72022 4.41204 8.49622 4.18804 8.49622 3.91204V3.29071C8.49622 2.21071 7.61822 1.33337 6.53889 1.33337H3.28889C2.21089 1.33337 1.33356 2.21071 1.33356 3.29071V10.71C1.33356 11.7894 2.21089 12.6667 3.28889 12.6667H6.54622C7.62089 12.6667 8.49622 11.792 8.49622 10.7174V10.0887C8.49622 9.81271 8.72022 9.58871 8.99622 9.58871C9.27222 9.58871 9.49622 9.81271 9.49622 10.0887V10.7174C9.49622 12.344 8.17222 13.6667 6.54622 13.6667H3.28889C1.65956 13.6667 0.333557 12.3407 0.333557 10.71V3.29071C0.333557 1.66004 1.65956 0.333374 3.28889 0.333374H6.53889ZM11.9256 4.70271L13.8776 6.64604C13.895 6.66332 13.9106 6.68129 13.9249 6.7003L13.8776 6.64604C13.9012 6.66933 13.9222 6.69477 13.9405 6.72191C13.9485 6.7342 13.9562 6.74692 13.9634 6.75998C13.9692 6.77019 13.9746 6.78085 13.9795 6.79168C13.9838 6.80125 13.9878 6.81083 13.9915 6.82055C13.9966 6.83322 14.001 6.84625 14.0048 6.85945C14.0077 6.86984 14.0104 6.88021 14.0128 6.89071C14.0157 6.90344 14.0181 6.91625 14.0199 6.92916C14.021 6.93756 14.022 6.94635 14.0228 6.95521C14.0243 6.97042 14.025 6.9852 14.025 7.00004L14.0216 7.04137L14.0202 7.06786C14.02 7.06899 14.0199 7.07012 14.0197 7.07125L14.025 7.00004C14.025 7.03705 14.0209 7.07369 14.0129 7.10932C14.0104 7.11987 14.0077 7.13024 14.0047 7.14048C14.001 7.15383 13.9966 7.16686 13.9916 7.17968C13.9878 7.18925 13.9838 7.19883 13.9794 7.20825C13.9746 7.21923 13.9692 7.22989 13.9635 7.24035C13.9562 7.25316 13.9485 7.26588 13.9402 7.2782C13.9355 7.28551 13.9304 7.29273 13.9251 7.29981C13.9092 7.32069 13.8919 7.34034 13.8732 7.35853L11.9256 9.29804C11.8283 9.39537 11.7003 9.44404 11.573 9.44404C11.445 9.44404 11.3163 9.39537 11.219 9.29671C11.0243 9.10071 11.025 8.78471 11.2203 8.59004L12.3136 7.50004H5.49742C5.22142 7.50004 4.99742 7.27604 4.99742 7.00004C4.99742 6.72404 5.22142 6.50004 5.49742 6.50004H12.3149L11.2203 5.41071C11.025 5.21604 11.0236 4.90004 11.219 4.70404C11.4136 4.50804 11.7296 4.50804 11.9256 4.70271Z" fill="white"/>
</svg>
