<svg width="16" height="12" viewBox="0 0 16 12" fill="none" xmlns="http://www.w3.org/2000/svg">
<path fill-rule="evenodd" clip-rule="evenodd" d="M7.92454 7.60929L7.99982 7.60931L8.16821 7.60988C9.45527 7.61836 12.3965 7.74838 12.3965 9.74196C12.3965 11.7225 9.5578 11.8516 8.18827 11.86L7.68087 11.86C6.39373 11.8516 3.45188 11.7217 3.45188 9.73063C3.45188 7.74764 6.39373 7.61832 7.68087 7.60988L7.84927 7.60931C7.87539 7.60929 7.9005 7.60929 7.92454 7.60929ZM7.92454 8.60929C6.34054 8.60929 4.45188 8.80396 4.45188 9.73063C4.45188 10.6363 6.22781 10.8481 7.77976 10.8601L7.92454 10.8606C9.50854 10.8606 11.3965 10.6666 11.3965 9.74196C11.3965 8.80596 9.50854 8.60929 7.92454 8.60929ZM13.2269 7.33876C14.8423 7.58076 15.1816 8.33943 15.1816 8.93343C15.1816 9.29609 15.0389 9.95809 14.0856 10.3214C14.0269 10.3434 13.9669 10.3541 13.9076 10.3541C13.7063 10.3541 13.5163 10.2314 13.4403 10.0321C13.3416 9.77409 13.4716 9.48476 13.7296 9.38676C14.1816 9.21476 14.1816 9.02476 14.1816 8.93343C14.1816 8.64143 13.8103 8.43743 13.0783 8.32809C12.8056 8.28676 12.6169 8.03276 12.6576 7.75876C12.6983 7.48543 12.9516 7.30343 13.2269 7.33876ZM3.19081 7.75876C3.23148 8.03276 3.04281 8.28676 2.77014 8.32809C2.03814 8.43743 1.66681 8.64143 1.66681 8.93343C1.66681 9.02476 1.66681 9.21409 2.11948 9.38676C2.37748 9.48476 2.50748 9.77409 2.40881 10.0321C2.33281 10.2314 2.14281 10.3541 1.94148 10.3541C1.88214 10.3541 1.82214 10.3434 1.76348 10.3214C0.809476 9.95743 0.666809 9.29543 0.666809 8.93343C0.666809 8.34009 1.00614 7.58076 2.62214 7.33876C2.89748 7.30409 3.14948 7.48543 3.19081 7.75876ZM7.92454 0.666626C9.60454 0.666626 10.9705 2.03329 10.9705 3.71263C10.9705 5.39196 9.60454 6.75863 7.92454 6.75863H7.90654C7.09321 6.75596 6.33121 6.43729 5.76054 5.86129C5.18854 5.28596 4.87588 4.52196 4.87918 3.71063C4.87918 2.03329 6.24521 0.666626 7.92454 0.666626ZM7.92454 1.66663C6.79654 1.66663 5.8792 2.58463 5.8792 3.71263C5.87721 4.25929 6.08654 4.77063 6.46988 5.15663C6.85321 5.54263 7.36388 5.75663 7.90788 5.75863L7.92454 6.25863V5.75863C9.05254 5.75863 9.97054 4.84129 9.97054 3.71263C9.97054 2.58463 9.05254 1.66663 7.92454 1.66663ZM12.0505 1.31963C13.2225 1.51229 14.0739 2.51496 14.0739 3.70363C14.0712 4.90029 13.1772 5.92696 11.9939 6.09296C11.9705 6.09629 11.9472 6.09763 11.9245 6.09763C11.6792 6.09763 11.4652 5.91696 11.4299 5.66696C11.3919 5.39296 11.5819 5.14029 11.8559 5.10229C12.5492 5.00496 13.0725 4.40363 13.0739 3.70229C13.0739 3.00696 12.5752 2.41896 11.8879 2.30629C11.6159 2.26163 11.4312 2.00429 11.4759 1.73163C11.5212 1.45896 11.7765 1.27629 12.0505 1.31963ZM4.37321 1.73163C4.41788 2.00429 4.23321 2.26163 3.96121 2.30629C3.27388 2.41896 2.77521 3.00696 2.77521 3.70363C2.77654 4.40363 3.29988 5.00563 3.99254 5.10229C4.26654 5.14029 4.45654 5.39296 4.41854 5.66696C4.38321 5.91696 4.16921 6.09763 3.92388 6.09763C3.90121 6.09763 3.87788 6.09629 3.85454 6.09296C2.67121 5.92696 1.77788 4.90029 1.77521 3.70496C1.77521 2.51496 2.62654 1.51229 3.79854 1.31963C4.07921 1.27563 4.32788 1.46029 4.37321 1.73163Z" fill="white"/>
</svg>
