<svg width="15" height="14" viewBox="0 0 15 14" fill="none" xmlns="http://www.w3.org/2000/svg">
<path fill-rule="evenodd" clip-rule="evenodd" d="M11.106 0.333374C13.326 0.333374 15 2.14471 15 4.54671V9.12537C15 10.3547 14.5653 11.4654 13.7753 12.2534C13.0666 12.9594 12.1473 13.3334 11.1166 13.3334H4.54796C3.51929 13.3334 2.60063 12.96 1.89129 12.2534C1.10129 11.4654 0.666626 10.3547 0.666626 9.12537V4.54671C0.666626 2.14471 2.34063 0.333374 4.56063 0.333374H11.106ZM11.106 1.33337H4.56063C2.88396 1.33337 1.66663 2.68471 1.66663 4.54671V9.12537C1.66663 10.0874 1.99729 10.9467 2.59729 11.5447C3.11463 12.0614 3.78996 12.3334 4.54996 12.3334H11.106C11.1073 12.332 11.1126 12.3334 11.1166 12.3334C11.8773 12.3334 12.552 12.0614 13.0693 11.5447C13.67 10.9467 14 10.0874 14 9.12537V4.54671C14 2.68471 12.7826 1.33337 11.106 1.33337ZM12.1566 4.41924C12.3306 4.63324 12.298 4.94791 12.084 5.12257L9.12129 7.53057C8.74662 7.82791 8.29862 7.97657 7.85129 7.97657C7.40529 7.97657 6.96062 7.82924 6.58862 7.53457L3.59863 5.12391C3.38329 4.95057 3.34996 4.63524 3.52263 4.42057C3.69663 4.20657 4.01129 4.17257 4.22596 4.34524L7.21329 6.75324C7.58862 7.05057 8.11729 7.05057 8.49529 6.75057L11.4526 4.34657C11.6673 4.17124 11.982 4.20457 12.1566 4.41924Z" fill="#DADFDD"/>
</svg>
