<svg width="13" height="15" viewBox="0 0 13 15" fill="none" xmlns="http://www.w3.org/2000/svg">
<path fill-rule="evenodd" clip-rule="evenodd" d="M4.88288 13.404C5.22821 13.7886 5.67155 14 6.13155 14H6.13221C6.59421 14 7.03955 13.7886 7.38555 13.4033C7.57088 13.1986 7.88688 13.182 8.09155 13.3666C8.29688 13.5513 8.31355 13.868 8.12888 14.0726C7.59021 14.6706 6.88155 15 6.13221 15H6.13088C5.38355 14.9993 4.67621 14.67 4.13955 14.072C3.95488 13.8673 3.97155 13.5506 4.17688 13.3666C4.38221 13.1813 4.69821 13.198 4.88288 13.404ZM6.16475 0.666626C9.12808 0.666626 11.1187 2.97463 11.1187 5.12996C11.1187 6.23862 11.4007 6.70862 11.7001 7.20729C11.9961 7.69929 12.3314 8.25796 12.3314 9.31396C12.0987 12.012 9.28208 12.232 6.16475 12.232C3.04741 12.232 0.230079 12.012 6.98594e-05 9.35662C-0.00192124 8.25796 0.333412 7.69929 0.629412 7.20729L0.733908 7.03139C0.991195 6.5892 1.21075 6.10819 1.21075 5.12996C1.21075 2.97463 3.20141 0.666626 6.16475 0.666626ZM6.16475 1.66663C3.83475 1.66663 2.21075 3.49196 2.21075 5.12996C2.21075 6.51596 1.82608 7.15662 1.48608 7.72196C1.21341 8.17596 0.998079 8.53462 0.998079 9.31396C1.10941 10.5713 1.93941 11.232 6.16475 11.232C10.3667 11.232 11.2227 10.542 11.3334 9.27062C11.3314 8.53462 11.1161 8.17596 10.8434 7.72196C10.5034 7.15662 10.1187 6.51596 10.1187 5.12996C10.1187 3.49196 8.49475 1.66663 6.16475 1.66663Z" fill="#DADFDD"/>
</svg>
