<svg width="24" height="25" viewBox="0 0 24 25" fill="none" xmlns="http://www.w3.org/2000/svg">
<g clip-path="url(#clip0_1205_6299)">
<path d="M21.8251 1.23711V19.6121H2.17505V5.21211L7.35005 0.0371094H20.6625C21.3001 0.0371094 21.8251 0.599609 21.8251 1.23711Z" fill="#EFF2F3"/>
<path d="M6.2624 5.21211H2.2124L7.3499 0.0371094L7.3124 4.08711C7.3499 4.72461 6.8624 5.21211 6.2624 5.21211Z" fill="#DADEDE"/>
<path d="M13.9125 10.5371C12.825 9.48711 12.0375 8.28711 12.0375 8.28711C12.3375 7.83711 13.05 5.24961 11.9625 4.49961C10.875 3.74961 10.3125 5.13711 10.3125 5.13711C9.82495 6.86211 10.9875 8.43711 10.9875 8.43711L9.67495 11.3246C9.52495 11.3246 5.36245 12.9371 6.78745 14.9246C8.24995 16.9121 10.275 12.1121 10.275 12.1121C11.0625 11.8496 13.4625 11.5121 13.4625 11.5121C14.4 12.7871 15.525 13.1996 15.525 13.1996C17.25 13.6496 17.4375 12.2246 17.4375 12.2246C17.475 10.3496 13.9125 10.5371 13.9125 10.5371ZM7.49995 14.2496C7.46245 14.2496 7.46245 14.2121 7.46245 14.2121C7.23745 13.6871 8.96245 12.6746 8.96245 12.6746C8.96245 12.6746 8.02495 14.4746 7.49995 14.2496ZM11.4 5.17461C11.8875 5.62461 11.475 7.16211 11.475 7.16211C11.475 7.16211 10.9125 5.62461 11.4 5.17461ZM10.95 10.9871L11.625 9.33711L12.675 10.6121L10.95 10.9871ZM16.5 12.1871C16.2 12.6746 14.9625 11.6246 14.85 11.5121C15.0375 11.5121 16.65 11.6246 16.5 12.1871ZM21.825 18.4121V22.8371C21.825 23.4746 21.3 24.0371 20.625 24.0371H3.33745C2.69995 24.0371 2.13745 23.5121 2.13745 22.8371V18.4121H21.825Z" fill="#F2786B"/>
<path d="M10.4625 20.3621C10.4625 20.6621 10.35 20.8871 10.1625 21.0746C9.97495 21.2246 9.67495 21.2996 9.29995 21.2996H8.99995V22.3871H8.51245V19.4996H9.37495C9.74995 19.4996 10.0125 19.5746 10.2 19.7246C10.3875 19.8746 10.4625 20.0621 10.4625 20.3621ZM9.03745 20.9246H9.29995C9.52495 20.9246 9.71245 20.8871 9.82495 20.8121C9.93745 20.7371 10.0125 20.5871 10.0125 20.3996C10.0125 20.2496 9.97495 20.0996 9.86245 20.0246C9.74995 19.9496 9.59995 19.9121 9.37495 19.9121H9.03745V20.9246ZM13.425 20.9246C13.425 21.4121 13.275 21.7871 13.0125 22.0121C12.75 22.2746 12.375 22.3871 11.85 22.3871H11.025V19.4996H11.925C12.375 19.4996 12.75 19.6121 13.0125 19.8746C13.275 20.0996 13.425 20.4746 13.425 20.9246ZM12.9 20.9246C12.9 20.2121 12.5625 19.8746 11.925 19.8746H11.5125V21.9746H11.85C12.5625 22.0121 12.9 21.6371 12.9 20.9246ZM14.5125 22.3871H14.025V19.4996H15.675V19.9121H14.5125V20.8121H15.6V21.2246H14.5125V22.3871Z" fill="#EFF2F3"/>
</g>
<defs>
<clipPath id="clip0_1205_6299">
<rect width="24" height="24" fill="white" transform="translate(0 0.0371094)"/>
</clipPath>
</defs>
</svg>
