<svg width="12" height="12" viewBox="0 0 12 12" fill="none" xmlns="http://www.w3.org/2000/svg">
<path fill-rule="evenodd" clip-rule="evenodd" d="M8.28013 0.166016C10.1141 0.166016 11.3461 1.42193 11.3461 3.29093V8.65527C11.3461 10.5406 10.152 11.7668 8.30404 11.7784L3.81646 11.7802C1.98246 11.7802 0.749878 10.5243 0.749878 8.65527V3.29093C0.749878 1.40502 1.94396 0.179432 3.79196 0.168349L8.27954 0.166016H8.28013ZM8.28013 1.04102L3.79488 1.04335C2.43688 1.05152 1.62488 1.89152 1.62488 3.29093V8.65527C1.62488 10.064 2.44446 10.9052 3.81588 10.9052L8.30113 10.9034C9.65913 10.8953 10.4711 10.0541 10.4711 8.65527V3.29093C10.4711 1.88218 9.65213 1.04102 8.28013 1.04102ZM8.1676 8.02567C8.4091 8.02567 8.6051 8.22167 8.6051 8.46317C8.6051 8.70467 8.4091 8.90067 8.1676 8.90067H3.95594C3.71444 8.90067 3.51844 8.70467 3.51844 8.46317C3.51844 8.22167 3.71444 8.02567 3.95594 8.02567H8.1676ZM8.1676 5.58355C8.4091 5.58355 8.6051 5.77955 8.6051 6.02105C8.6051 6.26255 8.4091 6.45855 8.1676 6.45855H3.95594C3.71444 6.45855 3.51844 6.26255 3.51844 6.02105C3.51844 5.77955 3.71444 5.58355 3.95594 5.58355H8.1676ZM5.56284 3.14708C5.80434 3.14708 6.00034 3.34308 6.00034 3.58458C6.00034 3.82608 5.80434 4.02208 5.56284 4.02208H3.95576C3.71426 4.02208 3.51826 3.82608 3.51826 3.58458C3.51826 3.34308 3.71426 3.14708 3.95576 3.14708H5.56284Z" fill="#444A47"/>
</svg>
