<svg width="16" height="17" viewBox="0 0 16 17" fill="none" xmlns="http://www.w3.org/2000/svg">
<path fill-rule="evenodd" clip-rule="evenodd" d="M7.8041 0.5C11.8316 0.5 15.1076 3.776 15.1076 7.8035C15.1076 9.70366 14.3784 11.4367 13.1851 12.7374L15.5331 15.0805C15.7529 15.3003 15.7536 15.6558 15.5339 15.8755C15.4244 15.9865 15.2796 16.0413 15.1356 16.0413C14.9924 16.0413 14.8484 15.9865 14.7381 15.877L12.3617 13.5073C11.1117 14.5084 9.5266 15.1077 7.8041 15.1077C3.7766 15.1077 0.499847 11.831 0.499847 7.8035C0.499847 3.776 3.7766 0.5 7.8041 0.5ZM7.8041 1.625C4.39685 1.625 1.62485 4.39625 1.62485 7.8035C1.62485 11.2107 4.39685 13.9827 7.8041 13.9827C11.2106 13.9827 13.9826 11.2107 13.9826 7.8035C13.9826 4.39625 11.2106 1.625 7.8041 1.625Z" fill="#6F7975"/>
</svg>
