<svg width="64" height="65" viewBox="0 0 64 65" fill="none" xmlns="http://www.w3.org/2000/svg">
<path d="M37.3333 29.8097H34.6667V27.143C34.6667 26.4357 34.3857 25.7575 33.8856 25.2574C33.3855 24.7573 32.7072 24.4763 32 24.4763C31.2928 24.4763 30.6145 24.7573 30.1144 25.2574C29.6143 25.7575 29.3333 26.4357 29.3333 27.143V29.8097H26.6667C25.9594 29.8097 25.2811 30.0906 24.781 30.5907C24.281 31.0908 24 31.7691 24 32.4763C24 33.1836 24.281 33.8618 24.781 34.3619C25.2811 34.862 25.9594 35.143 26.6667 35.143H29.3333V37.8097C29.3333 38.5169 29.6143 39.1952 30.1144 39.6953C30.6145 40.1954 31.2928 40.4763 32 40.4763C32.7072 40.4763 33.3855 40.1954 33.8856 39.6953C34.3857 39.1952 34.6667 38.5169 34.6667 37.8097V35.143H37.3333C38.0406 35.143 38.7189 34.862 39.219 34.3619C39.719 33.8618 40 33.1836 40 32.4763C40 31.7691 39.719 31.0908 39.219 30.5907C38.7189 30.0906 38.0406 29.8097 37.3333 29.8097Z" fill="#40916C"/>
<path d="M52.349 10.2094C52.0409 9.95952 51.681 9.78137 51.2954 9.68791C50.9098 9.59444 50.5082 9.58801 50.1199 9.66908C47.2699 10.2708 44.3268 10.2814 41.4726 9.70021C38.6185 9.11903 35.9139 7.95842 33.5261 6.29017C33.0787 5.97742 32.546 5.80969 32.0001 5.80969C31.4542 5.80969 30.9215 5.97742 30.474 6.29017C28.0866 7.9591 25.3821 9.12012 22.5277 9.70133C19.6734 10.2825 16.7302 10.2716 13.8803 9.66908C13.4921 9.58759 13.0905 9.59377 12.705 9.68717C12.3194 9.78057 11.9596 9.95884 11.6517 10.209C11.3438 10.4591 11.0956 10.7748 10.9252 11.1331C10.7548 11.4913 10.6665 11.883 10.6667 12.2797V32.1651C10.6707 35.9845 11.5842 39.7481 13.3318 43.1443C15.0794 46.5404 17.6107 49.4716 20.7162 51.695L30.4507 58.647C30.903 58.9697 31.4447 59.1431 32.0002 59.1431C32.5558 59.1431 33.0975 58.9697 33.5497 58.647L43.2841 51.6939C46.3897 49.4708 48.921 46.5399 50.6686 43.1439C52.4162 39.7479 53.3296 35.9844 53.3334 32.1652V12.2798C53.3334 11.8833 53.2451 11.4917 53.0748 11.1336C52.9045 10.7755 52.6566 10.4598 52.349 10.2094ZM37.3334 35.143H34.6667V37.8097C34.6667 38.5169 34.3858 39.1952 33.8857 39.6953C33.3856 40.1954 32.7073 40.4764 32.0001 40.4764C31.2928 40.4764 30.6146 40.1954 30.1145 39.6953C29.6144 39.1952 29.3334 38.5169 29.3334 37.8097V35.143H26.6667C25.9595 35.143 25.2812 34.8621 24.7811 34.362C24.281 33.8619 24.0001 33.1836 24.0001 32.4764C24.0001 31.7691 24.281 31.0908 24.7811 30.5907C25.2812 30.0906 25.9595 29.8097 26.6667 29.8097H29.3334V27.143C29.3334 26.4358 29.6144 25.7575 30.1145 25.2574C30.6146 24.7573 31.2928 24.4764 32.0001 24.4764C32.7073 24.4764 33.3856 24.7573 33.8857 25.2574C34.3858 25.7575 34.6667 26.4358 34.6667 27.143V29.8097H37.3334C38.0407 29.8097 38.7189 30.0906 39.219 30.5907C39.7191 31.0908 40.0001 31.7691 40.0001 32.4764C40.0001 33.1836 39.7191 33.8619 39.219 34.362C38.7189 34.8621 38.0407 35.143 37.3334 35.143Z" fill="white"/>
</svg>
