<svg width="20" height="17" viewBox="0 0 20 17" fill="none" xmlns="http://www.w3.org/2000/svg">
<path fill-rule="evenodd" clip-rule="evenodd" d="M10.0029 0.000488281C14.1389 0.00348828 17.8529 2.90249 19.9389 7.75649C20.0209 7.94549 20.0209 8.15949 19.9389 8.34849C17.8539 13.2035 14.1389 16.1025 10.0029 16.1055H9.9969C5.8609 16.1025 2.1469 13.2035 0.0608988 8.34849C-0.0201012 8.15949 -0.0201012 7.94549 0.0608988 7.75649C2.1469 2.90249 5.8619 0.00348828 9.9969 0.000488281H10.0029ZM9.9999 1.50049C6.5639 1.50149 3.4299 3.94449 1.5699 8.05249C3.4299 12.1615 6.5629 14.6045 9.9999 14.6055C13.4369 14.6045 16.5699 12.1615 18.4299 8.05249C16.5699 3.94449 13.4369 1.50149 9.9999 1.50049ZM9.9996 4.14129C12.1566 4.14129 13.9116 5.89629 13.9116 8.05329C13.9116 10.2093 12.1566 11.9633 9.9996 11.9633C7.8426 11.9633 6.0886 10.2093 6.0886 8.05329C6.0886 5.89629 7.8426 4.14129 9.9996 4.14129ZM9.9996 5.64129C8.6696 5.64129 7.5886 6.72329 7.5886 8.05329C7.5886 9.38229 8.6696 10.4633 9.9996 10.4633C11.3296 10.4633 12.4116 9.38229 12.4116 8.05329C12.4116 6.72329 11.3296 5.64129 9.9996 5.64129Z" fill="#444A47"/>
</svg>
