<svg width="24" height="18" viewBox="0 0 24 18" fill="none" xmlns="http://www.w3.org/2000/svg">
<path d="M22.8758 7.94245L1.87584 0.44245C1.46335 0.292487 0.998357 0.404957 0.690827 0.71995C0.383349 1.03497 0.293349 1.50748 0.458334 1.91997L2.64745 7.40306C2.76125 7.68802 3.03714 7.87497 3.34398 7.87497H9.12082C9.74333 7.87497 10.2458 8.37746 10.2458 8.99997C10.2458 9.62244 9.74333 10.125 9.12082 10.125H3.34398C3.03714 10.125 2.76125 10.3119 2.64745 10.5969L0.458334 16.08C0.293357 16.4925 0.383349 16.965 0.690834 17.28C0.908357 17.5049 1.20083 17.625 1.50084 17.625C1.62833 17.625 1.75586 17.6024 1.87584 17.5574L22.8758 10.0574C23.3258 9.89998 23.6258 9.47247 23.6258 8.99997C23.6258 8.52747 23.3258 8.09996 22.8758 7.94245Z" fill="#19201D"/>
</svg>
