<svg width="14" height="15" viewBox="0 0 14 15" fill="none" xmlns="http://www.w3.org/2000/svg">
<path fill-rule="evenodd" clip-rule="evenodd" d="M7.17813 0.333618C7.65546 0.333618 8.11946 0.529618 8.45213 0.870285C8.78413 1.21295 8.96746 1.68295 8.95346 2.15962C8.9548 2.26695 8.99013 2.39095 9.05413 2.49962C9.16013 2.67962 9.32746 2.80629 9.52613 2.85829C9.7248 2.90762 9.9328 2.88095 10.1095 2.77629C10.9628 2.28895 12.0488 2.58095 12.5361 3.42762L12.9515 4.14695C12.9621 4.16629 12.9715 4.18495 12.9795 4.20429C13.4208 5.03829 13.1261 6.08829 12.3061 6.56762C12.1868 6.63629 12.0901 6.73229 12.0235 6.84829C11.9201 7.02762 11.8915 7.24095 11.9435 7.43695C11.9968 7.63695 12.1241 7.80295 12.3035 7.90562C12.7081 8.13829 13.0101 8.53029 13.1308 8.98295C13.2515 9.43495 13.1855 9.92562 12.9501 10.3303L12.5075 11.0676C12.0201 11.905 10.9341 12.195 10.0895 11.707C9.9768 11.6423 9.8468 11.607 9.71746 11.6036H9.71346C9.5208 11.6036 9.3228 11.6856 9.1788 11.829C9.0328 11.975 8.9528 12.1696 8.95413 12.3763C8.94946 13.3556 8.1528 14.1476 7.17813 14.1476H6.3428C5.36346 14.1476 4.5668 13.3516 4.5668 12.3723C4.56546 12.2516 4.5308 12.1263 4.46613 12.0176C4.36146 11.835 4.19213 11.7043 3.9968 11.6523C3.8028 11.6003 3.59013 11.629 3.41546 11.7303C2.9968 11.9636 2.50413 12.0203 2.05346 11.8936C1.60346 11.7663 1.2148 11.457 0.986798 11.047L0.570132 10.329C0.0827985 9.48362 0.372798 8.40029 1.2168 7.91229C1.45613 7.77429 1.6048 7.51695 1.6048 7.24095C1.6048 6.96495 1.45613 6.70695 1.2168 6.56895C0.372132 6.07829 0.0827985 4.99229 0.569465 4.14695L1.02147 3.40495C1.50213 2.56895 2.5888 2.27429 3.43613 2.76095C3.55146 2.82962 3.6768 2.86429 3.80413 2.86562C4.21946 2.86562 4.5668 2.52295 4.57346 2.10162C4.5708 1.63695 4.75413 1.19095 5.08813 0.854285C5.42346 0.518285 5.8688 0.333618 6.3428 0.333618H7.17813ZM7.17813 1.33362H6.3428C6.13613 1.33362 5.9428 1.41429 5.7968 1.55962C5.65146 1.70562 5.57213 1.89962 5.57346 2.10629C5.55946 3.08095 4.7628 3.86562 3.79813 3.86562C3.4888 3.86229 3.1908 3.77895 2.93213 3.62429C2.5688 3.41762 2.09413 3.54495 1.88146 3.91495L1.43013 4.65695C1.22346 5.01562 1.35013 5.48962 1.71813 5.70362C2.26413 6.01962 2.6048 6.60895 2.6048 7.24095C2.6048 7.87295 2.26413 8.46162 1.7168 8.77829C1.3508 8.99029 1.22413 9.46162 1.43613 9.82829L1.8568 10.5536C1.9608 10.741 2.1308 10.8763 2.32746 10.9316C2.52346 10.9863 2.73946 10.963 2.91946 10.863C3.18413 10.7076 3.49213 10.627 3.80146 10.627C3.95413 10.627 4.1068 10.6463 4.25613 10.6863C4.7068 10.8076 5.09813 11.109 5.33013 11.5136C5.4808 11.7676 5.56413 12.0643 5.5668 12.367C5.5668 12.8003 5.9148 13.1476 6.3428 13.1476H7.17813C7.60413 13.1476 7.95213 12.8023 7.95413 12.3763C7.95146 11.9056 8.13546 11.4583 8.47213 11.1216C8.80413 10.7896 9.26813 10.5903 9.73213 10.6036C10.0361 10.611 10.3288 10.693 10.5868 10.8396C10.9581 11.0523 11.4321 10.9256 11.6468 10.559L12.0895 9.82095C12.1881 9.65095 12.2168 9.43762 12.1641 9.24095C12.1121 9.04429 11.9815 8.87362 11.8055 8.77295C11.3935 8.53562 11.0995 8.15295 10.9775 7.69429C10.8568 7.24429 10.9228 6.75295 11.1581 6.34829C11.3115 6.08162 11.5361 5.85695 11.8055 5.70229C12.1668 5.49095 12.2935 5.01829 12.0835 4.65029C12.0748 4.63562 12.0668 4.62029 12.0601 4.60429L11.6695 3.92695C11.4568 3.55695 10.9835 3.42962 10.6121 3.64095C10.2108 3.87829 9.73346 3.94629 9.2748 3.82562C8.8168 3.70695 8.4328 3.41695 8.19346 3.00762C8.04013 2.75162 7.9568 2.45362 7.95413 2.15029C7.96013 1.92229 7.88013 1.71762 7.7348 1.56762C7.59013 1.41829 7.3868 1.33362 7.17813 1.33362ZM6.7634 4.98302C8.00806 4.98302 9.02073 5.99635 9.02073 7.24102C9.02073 8.48569 8.00806 9.49769 6.7634 9.49769C5.51873 9.49769 4.50606 8.48569 4.50606 7.24102C4.50606 5.99635 5.51873 4.98302 6.7634 4.98302ZM6.7634 5.98302C6.07006 5.98302 5.50606 6.54769 5.50606 7.24102C5.50606 7.93435 6.07006 8.49769 6.7634 8.49769C7.45673 8.49769 8.02073 7.93435 8.02073 7.24102C8.02073 6.54769 7.45673 5.98302 6.7634 5.98302Z" fill="#DADFDD"/>
</svg>
