<svg width="107" height="107" viewBox="0 0 107 107" fill="none" xmlns="http://www.w3.org/2000/svg">
<path d="M54.1374 19.8481C47.0832 19.8481 40.1874 21.94 34.322 25.8591C28.4567 29.7782 23.8852 35.3485 21.1857 41.8658C18.4862 48.383 17.7798 55.5544 19.156 62.473C20.5323 69.3917 23.9292 75.7469 28.9172 80.735C33.9053 85.723 40.2605 89.1199 47.1792 90.4962C54.0978 91.8724 61.2692 91.166 67.7864 88.4665C74.3037 85.767 79.874 81.1955 83.7931 75.3302C87.7122 69.4648 89.8041 62.569 89.8041 55.5148C89.7934 46.0587 86.0323 36.9929 79.3458 30.3064C72.6593 23.6199 63.5935 19.8587 54.1374 19.8481ZM54.1374 88.6339C47.5871 88.6339 41.1838 86.6915 35.7374 83.0523C30.291 79.4131 26.0461 74.2406 23.5394 68.1889C21.0327 62.1372 20.3768 55.4781 21.6547 49.0536C22.9326 42.6291 26.0869 36.7279 30.7187 32.0961C35.3505 27.4643 41.2517 24.31 47.6762 23.0321C54.1006 21.7542 60.7598 22.4101 66.8115 24.9168C72.8632 27.4235 78.0357 31.6685 81.6749 37.1149C85.314 42.5613 87.2564 48.9645 87.2564 55.5148C87.2465 64.2955 83.754 72.7137 77.5451 78.9225C71.3362 85.1314 62.9181 88.6239 54.1374 88.6339Z" fill="#0BCEB2"/>
<path d="M73.6252 39.3211L43.4823 68.9838L34.6795 59.7319C34.4466 59.4871 34.126 59.3449 33.7882 59.3365C33.4504 59.3281 33.1231 59.4542 32.8783 59.6871C32.6335 59.9201 32.4912 60.2407 32.4828 60.5785C32.4744 60.9163 32.6006 61.2436 32.8335 61.4884L42.5295 71.6789C42.646 71.8014 42.7858 71.8994 42.9406 71.9673C43.0955 72.0352 43.2623 72.0717 43.4313 72.0744H43.4525C43.7867 72.0745 44.1074 71.9431 44.3456 71.7087L75.4115 41.1373C75.5312 41.0201 75.6266 40.8804 75.6923 40.7263C75.7579 40.5722 75.7925 40.4067 75.7941 40.2392C75.7956 40.0717 75.7642 39.9055 75.7014 39.7502C75.6387 39.5949 75.546 39.4535 75.4285 39.3341C75.311 39.2146 75.1712 39.1195 75.0169 39.0543C74.8627 38.989 74.697 38.9547 74.5295 38.9535C74.362 38.9523 74.1959 38.9842 74.0408 39.0473C73.8856 39.1103 73.7444 39.2034 73.6252 39.3211H73.6252Z" fill="#2D4356"/>
<path d="M95.996 93.5699H67.6795C76.644 90.2441 84.1539 83.8727 88.8961 75.57C93.6383 67.2674 95.3109 57.5619 93.6214 48.1508C91.9319 38.7398 86.9878 30.2221 79.6537 24.0875C72.3196 17.9528 63.0624 14.5916 53.5009 14.5916C43.9394 14.5916 34.6821 17.9528 27.3481 24.0875C20.014 30.2221 15.0699 38.7398 13.3804 48.1508C11.6909 57.5619 13.3634 67.2674 18.1056 75.57C22.8478 83.8727 30.3578 90.2441 39.3223 93.5699H11.0058C10.8245 93.5463 10.6404 93.5615 10.4655 93.6147C10.2907 93.6679 10.1292 93.7578 9.99183 93.8783C9.85449 93.9989 9.74445 94.1474 9.66907 94.3139C9.59368 94.4803 9.55469 94.661 9.55469 94.8438C9.55469 95.0265 9.59368 95.2072 9.66907 95.3736C9.74445 95.5401 9.85449 95.6886 9.99183 95.8092C10.1292 95.9297 10.2907 96.0196 10.4655 96.0728C10.6404 96.126 10.8245 96.1412 11.0058 96.1176H95.996C96.1772 96.1412 96.3614 96.126 96.5363 96.0728C96.7111 96.0196 96.8726 95.9297 97.0099 95.8092C97.1473 95.6886 97.2573 95.5401 97.3327 95.3736C97.4081 95.2072 97.4471 95.0265 97.4471 94.8438C97.4471 94.661 97.4081 94.4803 97.3327 94.3139C97.2573 94.1474 97.1473 93.9989 97.0099 93.8783C96.8726 93.7578 96.7111 93.6679 96.5363 93.6147C96.3614 93.5615 96.1772 93.5463 95.996 93.5699ZM15.2866 55.3557C15.2866 47.7976 17.5278 40.4093 21.7269 34.1249C25.9259 27.8406 31.8942 22.9426 38.8769 20.0503C45.8597 17.1579 53.5433 16.4012 60.9561 17.8757C68.369 19.3502 75.1781 22.9897 80.5225 28.3341C85.8668 33.6784 89.5064 40.4876 90.9809 47.9004C92.4554 55.3133 91.6986 62.9969 88.8063 69.9796C85.9139 76.9624 81.0159 82.9306 74.7316 87.1297C68.4473 91.3287 61.059 93.5699 53.5009 93.5699C43.3694 93.5585 33.6561 89.5286 26.492 82.3646C19.3279 75.2005 15.2981 65.4872 15.2866 55.3557ZM56.367 11.25C56.7449 11.25 57.1143 11.138 57.4285 10.928C57.7427 10.718 57.9876 10.4196 58.1322 10.0705C58.2768 9.72136 58.3147 9.33718 58.241 8.96654C58.1672 8.59589 57.9853 8.25544 57.718 7.98822C57.4508 7.721 57.1104 7.53902 56.7397 7.4653C56.3691 7.39157 55.9849 7.42941 55.6358 7.57403C55.2866 7.71865 54.9882 7.96355 54.7783 8.27776C54.5683 8.59198 54.4562 8.9614 54.4562 9.3393C54.4568 9.84587 54.6583 10.3315 55.0165 10.6897C55.3747 11.0479 55.8604 11.2494 56.367 11.25ZM56.367 8.38394C56.5559 8.38394 56.7406 8.43997 56.8977 8.54495C57.0548 8.64992 57.1773 8.79913 57.2496 8.9737C57.3219 9.14827 57.3408 9.34036 57.304 9.52568C57.2671 9.711 57.1761 9.88123 57.0425 10.0148C56.9089 10.1484 56.7387 10.2394 56.5533 10.2763C56.368 10.3132 56.1759 10.2942 56.0014 10.2219C55.8268 10.1496 55.6776 10.0272 55.5726 9.87007C55.4676 9.71296 55.4116 9.52825 55.4116 9.3393C55.4118 9.086 55.5126 8.84314 55.6917 8.66403C55.8708 8.48492 56.1137 8.38419 56.367 8.38394ZM100.826 43.2545C100.574 43.2545 100.328 43.3292 100.118 43.4691C99.9087 43.6091 99.7455 43.8081 99.6491 44.0408C99.5527 44.2736 99.5274 44.5297 99.5766 44.7768C99.6257 45.0239 99.747 45.2509 99.9252 45.429C100.103 45.6071 100.33 45.7285 100.577 45.7776C100.825 45.8268 101.081 45.8015 101.313 45.7051C101.546 45.6087 101.745 45.4455 101.885 45.236C102.025 45.0265 102.1 44.7802 102.1 44.5283C102.099 44.1906 101.965 43.8668 101.726 43.628C101.487 43.3892 101.164 43.2549 100.826 43.2545ZM100.826 45.1652C100.7 45.1652 100.577 45.1278 100.472 45.0579C100.367 44.9879 100.286 44.8884 100.237 44.772C100.189 44.6556 100.177 44.5276 100.201 44.404C100.226 44.2805 100.286 44.167 100.376 44.0779C100.465 43.9888 100.578 43.9282 100.702 43.9036C100.825 43.879 100.953 43.8917 101.07 43.9399C101.186 43.9881 101.285 44.0697 101.355 44.1744C101.425 44.2792 101.463 44.4023 101.463 44.5283C101.463 44.6971 101.395 44.8591 101.276 44.9785C101.157 45.0979 100.995 45.165 100.826 45.1652ZM82.7985 2.28027C82.5466 2.28027 82.3003 2.35498 82.0908 2.49495C81.8813 2.63492 81.7181 2.83386 81.6217 3.06662C81.5252 3.29938 81.5 3.5555 81.5492 3.80259C81.5983 4.04969 81.7196 4.27666 81.8978 4.4548C82.0759 4.63295 82.3029 4.75427 82.55 4.80342C82.7971 4.85257 83.0532 4.82734 83.286 4.73093C83.5187 4.63452 83.7177 4.47125 83.8576 4.26177C83.9976 4.0523 84.0723 3.80602 84.0723 3.55408C84.0719 3.21637 83.9376 2.89259 83.6988 2.65379C83.46 2.41499 83.1362 2.28066 82.7985 2.28027ZM82.7985 4.19099C82.6725 4.19099 82.5494 4.15363 82.4447 4.08365C82.3399 4.01367 82.2583 3.91419 82.2101 3.79782C82.1619 3.68144 82.1493 3.55338 82.1738 3.42983C82.1984 3.30628 82.2591 3.1928 82.3481 3.10372C82.4372 3.01465 82.5507 2.95399 82.6743 2.92942C82.7978 2.90484 82.9259 2.91745 83.0422 2.96566C83.1586 3.01387 83.2581 3.0955 83.3281 3.20024C83.3981 3.30498 83.4354 3.42812 83.4354 3.55408C83.4352 3.72295 83.3681 3.88485 83.2487 4.00426C83.1293 4.12366 82.9674 4.19082 82.7985 4.19099ZM102.755 9.71083C102.503 9.71083 102.257 9.78554 102.047 9.92551C101.838 10.0655 101.674 10.2644 101.578 10.4972C101.482 10.7299 101.456 10.9861 101.506 11.2331C101.555 11.4802 101.676 11.7072 101.854 11.8854C102.032 12.0635 102.259 12.1848 102.506 12.234C102.753 12.2831 103.01 12.2579 103.242 12.1615C103.475 12.0651 103.674 11.9018 103.814 11.6923C103.954 11.4829 104.029 11.2366 104.029 10.9846C104.028 10.6469 103.894 10.3231 103.655 10.0843C103.416 9.84554 103.093 9.71122 102.755 9.71083ZM102.755 11.6215C102.629 11.6215 102.506 11.5842 102.401 11.5142C102.296 11.4442 102.215 11.3448 102.166 11.2284C102.118 11.112 102.106 10.9839 102.13 10.8604C102.155 10.7368 102.215 10.6234 102.304 10.5343C102.394 10.4452 102.507 10.3845 102.631 10.36C102.754 10.3354 102.882 10.348 102.999 10.3962C103.115 10.4444 103.214 10.5261 103.284 10.6308C103.354 10.7355 103.392 10.8587 103.392 10.9846C103.392 11.1535 103.324 11.3154 103.205 11.4348C103.086 11.5542 102.924 11.6214 102.755 11.6215ZM19.3021 19.4767C19.3021 19.2248 19.2274 18.9785 19.0874 18.769C18.9475 18.5595 18.7485 18.3963 18.5158 18.2999C18.283 18.2034 18.0269 18.1782 17.7798 18.2274C17.5327 18.2765 17.3057 18.3978 17.1276 18.576C16.9494 18.7541 16.8281 18.9811 16.779 19.2282C16.7298 19.4753 16.755 19.7314 16.8514 19.9642C16.9479 20.1969 17.1111 20.3959 17.3206 20.5358C17.5301 20.6758 17.7764 20.7505 18.0283 20.7505C18.366 20.7501 18.6898 20.6158 18.9286 20.377C19.1674 20.1382 19.3017 19.8144 19.3021 19.4767ZM17.3914 19.4767C17.3914 19.3507 17.4287 19.2276 17.4987 19.1229C17.5687 19.0181 17.6682 18.9365 17.7846 18.8883C17.9009 18.8401 18.029 18.8275 18.1525 18.852C18.2761 18.8766 18.3896 18.9373 18.4786 19.0263C18.5677 19.1154 18.6284 19.2289 18.653 19.3524C18.6775 19.476 18.6649 19.6041 18.6167 19.7204C18.5685 19.8368 18.4869 19.9363 18.3821 20.0063C18.2774 20.0763 18.1543 20.1136 18.0283 20.1136C17.8594 20.1134 17.6975 20.0463 17.5781 19.9269C17.4587 19.8075 17.3916 19.6456 17.3914 19.4767Z" fill="#2D4356"/>
<path d="M6.93403 43.2617L7.8811 42.016L7.28305 41.6771L6.67481 43.0719H6.65506L6.03727 41.6873L5.42902 42.0357L6.36591 43.2522V43.2719L4.90039 43.0821V43.7598L6.37546 43.5706V43.5904L5.42902 44.8062L5.9965 45.1655L6.64487 43.7598H6.66462L7.26267 45.1553L7.89066 44.7967L6.93403 43.6006V43.5802L8.4384 43.7598V43.0821L6.93403 43.2815V43.2617Z" fill="#0BCEB2"/>
<path d="M7.74612 3.97306L7.20092 4.67302L7.52766 4.88001L7.90088 4.07051H7.91235L8.25691 4.87428L8.61867 4.66729L8.06775 3.97879V3.96733L8.93394 4.07051V3.68008L8.06775 3.79536V3.7839L8.61294 3.06611L8.26838 2.87122L7.91872 3.67435H7.90662L7.55122 2.87695L7.20092 3.07757L7.74038 3.77817V3.78963L6.89648 3.68008V4.07051L7.74612 3.9616V3.97306Z" fill="#0BCEB2"/>
<path d="M41.5935 4.00864V3.34372L40.1178 3.53925V3.5195L41.0464 2.29792L40.4599 1.96545L39.8637 3.33416H39.844L39.2383 1.97501L38.6415 2.31766L39.5605 3.50995V3.52969L38.123 3.34372V4.00864L39.5701 3.82267V3.84241L38.6415 5.0347L39.1988 5.38691L39.8344 4.00864H39.8535L40.4401 5.37672L41.056 5.02514L40.1178 3.85197V3.83222L41.5935 4.00864Z" fill="#0BCEB2"/>
<path d="M88.439 22.826L89.2403 21.772L88.7339 21.4854L88.2199 22.6655H88.2027L87.6805 21.4936L87.1652 21.7885L87.9582 22.8178V22.8343L86.7188 22.6738V23.247L87.9664 23.0872V23.1044L87.1652 24.1323L87.6461 24.4361L88.1945 23.247H88.211L88.7167 24.4279L89.2485 24.124L88.439 23.1126V23.0954L89.7116 23.247V22.6738L88.439 22.8426V22.826Z" fill="#0BCEB2"/>
<path d="M1.27381 96.1178C1.97732 96.1178 2.54762 95.5475 2.54762 94.844C2.54762 94.1405 1.97732 93.5702 1.27381 93.5702C0.570304 93.5702 0 94.1405 0 94.844C0 95.5475 0.570304 96.1178 1.27381 96.1178Z" fill="#2D4356"/>
<path d="M7.00679 93.5699H5.09608C4.75824 93.5699 4.43424 93.7041 4.19536 93.943C3.95647 94.1819 3.82227 94.5059 3.82227 94.8438C3.82227 95.1816 3.95647 95.5056 4.19536 95.7445C4.43424 95.9834 4.75824 96.1176 5.09608 96.1176H7.00679C7.34462 96.1176 7.66862 95.9834 7.90751 95.7445C8.14639 95.5056 8.2806 95.1816 8.2806 94.8438C8.2806 94.5059 8.14639 94.1819 7.90751 93.943C7.66862 93.7041 7.34462 93.5699 7.00679 93.5699ZM101.906 93.5699H99.9949C99.657 93.5699 99.333 93.7041 99.0942 93.943C98.8553 94.1819 98.7211 94.5059 98.7211 94.8438C98.7211 95.1816 98.8553 95.5056 99.0942 95.7445C99.333 95.9834 99.657 96.1176 99.9949 96.1176H101.906C102.243 96.1176 102.567 95.9834 102.806 95.7445C103.045 95.5056 103.179 95.1816 103.179 94.8438C103.179 94.5059 103.045 94.1819 102.806 93.943C102.567 93.7041 102.243 93.5699 101.906 93.5699Z" fill="#2D4356"/>
<path d="M105.727 96.1178C106.43 96.1178 107.001 95.5475 107.001 94.844C107.001 94.1405 106.43 93.5702 105.727 93.5702C105.023 93.5702 104.453 94.1405 104.453 94.844C104.453 95.5475 105.023 96.1178 105.727 96.1178Z" fill="#2D4356"/>
<path d="M75.2536 98.6652H69.9624C69.6422 98.6908 69.3433 98.8362 69.1254 99.0722C68.9075 99.3083 68.7865 99.6177 68.7865 99.939C68.7865 100.26 68.9075 100.57 69.1254 100.806C69.3433 101.042 69.6422 101.187 69.9624 101.213H75.2536C75.5738 101.187 75.8727 101.042 76.0905 100.806C76.3084 100.57 76.4294 100.26 76.4294 99.939C76.4294 99.6177 76.3084 99.3083 76.0905 99.0722C75.8727 98.8362 75.5738 98.6908 75.2536 98.6652ZM37.0393 98.6652H31.7481C31.4279 98.6908 31.1291 98.8362 30.9112 99.0722C30.6933 99.3083 30.5723 99.6177 30.5723 99.939C30.5723 100.26 30.6933 100.57 30.9112 100.806C31.1291 101.042 31.4279 101.187 31.7481 101.213H37.0393C37.3596 101.187 37.6584 101.042 37.8763 100.806C38.0942 100.57 38.2152 100.26 38.2152 99.939C38.2152 99.6177 38.0942 99.3083 37.8763 99.0722C37.6584 98.8362 37.3596 98.6908 37.0393 98.6652ZM66.2389 98.6652H40.7628C40.4249 98.6652 40.1009 98.7994 39.862 99.0383C39.6232 99.2771 39.4889 99.6011 39.4889 99.939C39.4889 100.277 39.6232 100.601 39.862 100.84C40.1009 101.079 40.4249 101.213 40.7628 101.213H50.915V102.487H45.858C45.5202 102.487 45.1962 102.621 44.9573 102.86C44.7184 103.099 44.5842 103.423 44.5842 103.76C44.5842 104.098 44.7184 104.422 44.9573 104.661C45.1962 104.9 45.5202 105.034 45.858 105.034H61.7806C62.1185 105.034 62.4425 104.9 62.6813 104.661C62.9202 104.422 63.0544 104.098 63.0544 103.76C63.0544 103.423 62.9202 103.099 62.6813 102.86C62.4425 102.621 62.1185 102.487 61.7806 102.487H56.0867V101.213H66.2389C66.5768 101.213 66.9008 101.079 67.1397 100.84C67.3786 100.601 67.5128 100.277 67.5128 99.939C67.5128 99.6011 67.3786 99.2771 67.1397 99.0383C66.9008 98.7994 66.5768 98.6652 66.2389 98.6652Z" fill="#0BCEB2"/>
</svg>
