<svg width="64" height="65" viewBox="0 0 64 65" fill="none" xmlns="http://www.w3.org/2000/svg">
<path d="M56 28.4763H54V24.4763C54 18.6416 51.6822 13.0458 47.5564 8.91997C43.4305 4.79417 37.8348 2.47632 32 2.47632C26.1652 2.47632 20.5695 4.79417 16.4437 8.91997C12.3179 13.0458 10 18.6416 10 24.4763V28.4763H8C6.4087 28.4763 4.88258 29.1085 3.75736 30.2337C2.63214 31.3589 2 32.885 2 34.4763V42.4763C2 44.0676 2.63214 45.5937 3.75736 46.719C4.88258 47.8442 6.4087 48.4763 8 48.4763H10C10 50.0676 10.6321 51.5937 11.7574 52.719C12.8826 53.8442 14.4087 54.4763 16 54.4763C17.5913 54.4763 19.1174 53.8442 20.2426 52.719C21.3679 51.5937 22 50.0676 22 48.4763V28.4763C22.0005 27.5162 21.7706 26.5699 21.3295 25.7171C20.8885 24.8642 20.2492 24.1297 19.4654 23.5751C18.6816 23.0206 17.7761 22.6622 16.8251 22.5302C15.8741 22.3981 14.9052 22.4963 14 22.8163C14.4219 18.3558 16.4923 14.213 19.8062 11.1977C23.1202 8.18244 27.4396 6.51149 31.92 6.51149C36.4004 6.51149 40.7198 8.18244 44.0338 11.1977C47.3477 14.213 49.4181 18.3558 49.84 22.8163C48.944 22.5276 47.9927 22.4538 47.0629 22.6007C46.1331 22.7477 45.251 23.1114 44.4877 23.6624C43.7245 24.2134 43.1017 24.9363 42.6695 25.7725C42.2373 26.6088 42.008 27.535 42 28.4763V48.4763C42.0027 49.4348 42.235 50.3786 42.6774 51.2289C43.1198 52.0792 43.7594 52.811 44.5428 53.3633C45.3261 53.9156 46.2304 54.2721 47.1799 54.4032C48.1293 54.5342 49.0964 54.4358 50 54.1163V58.4763H43.8C43.514 59.9298 42.8982 61.2983 42 62.4763H52C52.5304 62.4763 53.0391 62.2656 53.4142 61.8905C53.7893 61.5155 54 61.0068 54 60.4763V48.4763H56C57.5913 48.4763 59.1174 47.8442 60.2426 46.719C61.3679 45.5937 62 44.0676 62 42.4763V34.4763C62 32.885 61.3679 31.3589 60.2426 30.2337C59.1174 29.1085 57.5913 28.4763 56 28.4763Z" fill="white"/>
<path d="M34 50.4763H30C28.4087 50.4763 26.8826 51.1085 25.7574 52.2337C24.6321 53.3589 24 54.885 24 56.4763C24 58.0676 24.6321 59.5937 25.7574 60.719C26.8826 61.8442 28.4087 62.4763 30 62.4763H34C35.5913 62.4763 37.1174 61.8442 38.2426 60.719C39.3679 59.5937 40 58.0676 40 56.4763C40 54.885 39.3679 53.3589 38.2426 52.2337C37.1174 51.1085 35.5913 50.4763 34 50.4763Z" fill="white"/>
</svg>
