<svg width="12" height="12" viewBox="0 0 12 12" fill="none" xmlns="http://www.w3.org/2000/svg">
<path fill-rule="evenodd" clip-rule="evenodd" d="M8.52849 0.166504C10.5054 0.166504 11.8337 1.55367 11.8337 3.6175V8.38217C11.8337 10.446 10.5054 11.8332 8.52791 11.8332H3.47158C1.49466 11.8332 0.166992 10.446 0.166992 8.38217V3.6175C0.166992 1.55367 1.49466 0.166504 3.47158 0.166504H8.52849ZM8.52849 1.0415H3.47158C1.99574 1.0415 1.04199 2.05242 1.04199 3.6175V8.38217C1.04199 9.94725 1.99574 10.9582 3.47158 10.9582H8.52791C10.0043 10.9582 10.9587 9.94725 10.9587 8.38217V3.6175C10.9587 2.05242 10.0043 1.0415 8.52849 1.0415ZM4.90978 4.28635L5.99916 5.37567L7.08795 4.28758C7.25887 4.11666 7.53537 4.11666 7.70628 4.28758C7.8772 4.4585 7.8772 4.735 7.70628 4.90591L6.61749 5.994L7.70745 7.0846C7.87837 7.25552 7.87837 7.53202 7.70745 7.70294C7.62228 7.78869 7.5097 7.83127 7.39828 7.83127C7.28628 7.83127 7.17428 7.78869 7.08912 7.70294L5.99916 6.61234L4.91095 7.70125C4.82578 7.787 4.71378 7.82958 4.60178 7.82958C4.48978 7.82958 4.37778 7.787 4.29262 7.70125C4.1217 7.53033 4.1217 7.25383 4.29262 7.08291L5.38083 5.994L4.29145 4.90469C4.12053 4.73377 4.12053 4.45727 4.29145 4.28635C4.46295 4.11544 4.73945 4.11544 4.90978 4.28635Z" fill="#444A47"/>
</svg>
