<svg width="40" height="41" viewBox="0 0 40 41" fill="none" xmlns="http://www.w3.org/2000/svg">
<circle cx="20" cy="20.0371" r="20" fill="#EDFFF7"/>
<path fill-rule="evenodd" clip-rule="evenodd" d="M16.9122 17.8998C17.1882 17.8998 17.4122 18.1238 17.4122 18.3998C17.4122 18.6758 17.1882 18.8998 16.9122 18.8998H16.2902C15.2108 18.8998 14.3335 19.7772 14.3335 20.8558V24.1058C14.3335 25.1852 15.2108 26.0625 16.2902 26.0625H23.7102C24.7888 26.0625 25.6668 25.1852 25.6668 24.1058V20.8498C25.6668 19.7745 24.7922 18.8998 23.7175 18.8998H23.0888C22.8128 18.8998 22.5888 18.6758 22.5888 18.3998C22.5888 18.1238 22.8128 17.8998 23.0888 17.8998H23.7175C25.3435 17.8998 26.6668 19.2232 26.6668 20.8498V24.1058C26.6668 25.7365 25.3402 27.0625 23.7102 27.0625H16.2902C14.6602 27.0625 13.3335 25.7365 13.3335 24.1058V20.8558C13.3335 19.2258 14.6602 17.8998 16.2902 17.8998H16.9122ZM20.3539 13.5182L22.2979 15.4702C22.4926 15.6662 22.4919 15.9822 22.2966 16.1769C22.1006 16.3716 21.7846 16.3716 21.5899 16.1756L20.4995 15.0814L20.4999 22.3978H19.4999L19.4995 15.0814L18.4106 16.1756C18.3132 16.2742 18.1846 16.3229 18.0566 16.3229C17.9292 16.3229 17.8012 16.2742 17.7039 16.1769C17.5086 15.9822 17.5072 15.6662 17.7026 15.4702L19.6459 13.5182C19.8332 13.3296 20.1666 13.3296 20.3539 13.5182Z" fill="#40916C"/>
</svg>
