<svg width="10" height="12" viewBox="0 0 10 12" fill="none" xmlns="http://www.w3.org/2000/svg">
<path fill-rule="evenodd" clip-rule="evenodd" d="M9.57301 9.61265C9.57301 11.5353 6.93634 11.7576 4.95359 11.7576L4.8117 11.7574C3.54846 11.7544 0.333008 11.6746 0.333008 9.60099C0.333008 7.71756 2.86371 7.46585 4.83137 7.45636L5.09547 7.45619C6.35863 7.45926 9.57301 7.53902 9.57301 9.61265ZM4.95359 8.33107C2.46801 8.33107 1.20801 8.75807 1.20801 9.60099C1.20801 10.4515 2.46801 10.8826 4.95359 10.8826C7.43859 10.8826 8.69801 10.4556 8.69801 9.61265C8.69801 8.76215 7.43859 8.33107 4.95359 8.33107ZM4.95359 0.166504C6.66159 0.166504 8.05051 1.556 8.05051 3.264C8.05051 4.972 6.66159 6.36092 4.95359 6.36092H4.93492C3.23042 6.35567 1.84967 4.96559 1.85549 3.26225C1.85549 1.556 3.24501 0.166504 4.95359 0.166504ZM4.95359 0.999504C3.70467 0.999504 2.6885 2.01509 2.6885 3.264C2.68442 4.50884 3.69301 5.52384 4.93667 5.5285L4.95359 5.945V5.5285C6.20192 5.5285 7.21751 4.51234 7.21751 3.264C7.21751 2.01509 6.20192 0.999504 4.95359 0.999504Z" fill="#444A47"/>
</svg>
