<svg width="15" height="13" viewBox="0 0 15 13" fill="none" xmlns="http://www.w3.org/2000/svg">
<path fill-rule="evenodd" clip-rule="evenodd" d="M10.0944 0C12.2991 0 14.0924 1.79333 14.0924 3.99867V8.78333C14.0924 10.988 12.2991 12.782 10.0944 12.782H4.33174C2.12707 12.782 0.333069 10.988 0.333069 8.78333V3.99867C0.333069 1.79333 2.12707 0 4.33174 0H10.0944ZM10.0944 1H4.33174C2.6784 1 1.33307 2.34533 1.33307 3.99867V8.78333C1.33307 10.4367 2.6784 11.782 4.33174 11.782H10.0944C11.7477 11.782 13.0924 10.4367 13.0924 8.78333V8.59667L10.8938 8.59707C9.62914 8.59707 8.5998 7.5684 8.59914 6.3044C8.59914 5.03907 9.62847 4.00973 10.8938 4.00907L13.0924 4.00867V3.99867C13.0924 2.34533 11.7477 1 10.0944 1ZM13.0924 5.00867L10.8938 5.00907C10.1798 5.00973 9.59914 5.5904 9.59914 6.30373C9.59914 7.0164 10.1805 7.59707 10.8938 7.59707L13.0924 7.59667V5.00867ZM11.1989 5.7624C11.4749 5.7624 11.6989 5.9864 11.6989 6.2624C11.6989 6.5384 11.4749 6.7624 11.1989 6.7624H10.9909C10.7149 6.7624 10.4909 6.5384 10.4909 6.2624C10.4909 5.9864 10.7149 5.7624 10.9909 5.7624H11.1989ZM7.4564 3.0254C7.7324 3.0254 7.9564 3.2494 7.9564 3.5254C7.9564 3.8014 7.7324 4.0254 7.4564 4.0254H3.85707C3.58107 4.0254 3.35707 3.8014 3.35707 3.5254C3.35707 3.2494 3.58107 3.0254 3.85707 3.0254H7.4564Z" fill="white"/>
</svg>
